%TF.GenerationSoftware,KiCad,Pcbnew,(5.1.8-0-10_14)*%
%TF.CreationDate,2020-11-21T07:35:44-07:00*%
%TF.ProjectId,Ellow,456c6c6f-772e-46b6-9963-61645f706362,rev?*%
%TF.SameCoordinates,Original*%
%TF.FileFunction,Soldermask,Bot*%
%TF.FilePolarity,Negative*%
%FSLAX46Y46*%
G04 Gerber Fmt 4.6, Leading zero omitted, Abs format (unit mm)*
G04 Created by KiCad (PCBNEW (5.1.8-0-10_14)) date 2020-11-21 07:35:44*
%MOMM*%
%LPD*%
G01*
G04 APERTURE LIST*
%ADD10R,2.200000X0.330000*%
%ADD11R,1.000000X0.650000*%
%ADD12R,0.650000X1.000000*%
%ADD13O,1.000000X2.100000*%
%ADD14C,0.650000*%
%ADD15O,1.000000X1.600000*%
G04 APERTURE END LIST*
D10*
%TO.C,J4*%
X226531102Y-93624757D03*
X226531102Y-94124757D03*
X226531102Y-94624757D03*
X226531102Y-95124757D03*
X226531102Y-95624757D03*
X226531102Y-96124757D03*
X226531102Y-96624757D03*
X226531102Y-97124757D03*
X226531102Y-97624757D03*
X226531102Y-98124757D03*
X226531102Y-98624757D03*
X226531102Y-99124757D03*
X226531102Y-99624757D03*
X226531102Y-100124757D03*
X226531102Y-100624757D03*
X226531102Y-101124757D03*
X226531102Y-101624757D03*
X226531102Y-102124757D03*
X226531102Y-102624757D03*
X226531102Y-103124757D03*
X226531102Y-103624757D03*
X226531102Y-104124757D03*
X226531102Y-104624757D03*
X226531102Y-105124757D03*
X226531102Y-105624757D03*
X226531102Y-106124757D03*
X226531102Y-106624757D03*
X226531102Y-107124757D03*
X226531102Y-107624757D03*
X226531102Y-110124757D03*
X226531102Y-110624757D03*
X226531102Y-111124757D03*
X226531102Y-111624757D03*
X226531102Y-112124757D03*
%TD*%
D11*
%TO.C,U2*%
X241531000Y-112208000D03*
X241531000Y-110938000D03*
X241531000Y-109668000D03*
X241531000Y-108398000D03*
X241531000Y-107128000D03*
X241531000Y-105858000D03*
X241531000Y-104588000D03*
X241531000Y-103318000D03*
D12*
X234927000Y-114748000D03*
X233657000Y-114748000D03*
X238737000Y-114748000D03*
X236197000Y-114748000D03*
X240007000Y-114748000D03*
X241277000Y-114748000D03*
X237467000Y-114748000D03*
%TD*%
D13*
%TO.C,J1*%
X233170000Y-95840000D03*
X241810000Y-95840000D03*
D14*
X240380000Y-95310000D03*
D15*
X241810000Y-91660000D03*
D14*
X234600000Y-95310000D03*
D15*
X233170000Y-91660000D03*
%TD*%
M02*
