%TF.GenerationSoftware,KiCad,Pcbnew,(5.1.8-0-10_14)*%
%TF.CreationDate,2020-11-22T12:38:21-07:00*%
%TF.ProjectId,Ellow,456c6c6f-772e-46b6-9963-61645f706362,rev?*%
%TF.SameCoordinates,Original*%
%TF.FileFunction,Copper,L1,Top*%
%TF.FilePolarity,Positive*%
%FSLAX46Y46*%
G04 Gerber Fmt 4.6, Leading zero omitted, Abs format (unit mm)*
G04 Created by KiCad (PCBNEW (5.1.8-0-10_14)) date 2020-11-22 12:38:21*
%MOMM*%
%LPD*%
G01*
G04 APERTURE LIST*
%TA.AperFunction,ComponentPad*%
%ADD10O,1.000000X1.000000*%
%TD*%
%TA.AperFunction,ComponentPad*%
%ADD11R,1.000000X1.000000*%
%TD*%
%TA.AperFunction,SMDPad,CuDef*%
%ADD12R,0.800000X0.900000*%
%TD*%
%TA.AperFunction,SMDPad,CuDef*%
%ADD13R,0.900000X0.800000*%
%TD*%
%TA.AperFunction,SMDPad,CuDef*%
%ADD14R,0.600000X0.450000*%
%TD*%
%TA.AperFunction,WasherPad*%
%ADD15C,4.000000*%
%TD*%
%TA.AperFunction,SMDPad,CuDef*%
%ADD16R,1.050000X1.100000*%
%TD*%
%TA.AperFunction,SMDPad,CuDef*%
%ADD17R,3.000000X0.330000*%
%TD*%
%TA.AperFunction,ComponentPad*%
%ADD18R,1.000000X0.650000*%
%TD*%
%TA.AperFunction,SMDPad,CuDef*%
%ADD19R,1.000000X0.650000*%
%TD*%
%TA.AperFunction,SMDPad,CuDef*%
%ADD20R,0.650000X1.000000*%
%TD*%
%TA.AperFunction,ComponentPad*%
%ADD21R,0.650000X1.000000*%
%TD*%
%TA.AperFunction,SMDPad,CuDef*%
%ADD22R,0.600000X1.450000*%
%TD*%
%TA.AperFunction,SMDPad,CuDef*%
%ADD23R,0.300000X1.450000*%
%TD*%
%TA.AperFunction,ComponentPad*%
%ADD24O,1.000000X2.100000*%
%TD*%
%TA.AperFunction,ComponentPad*%
%ADD25O,1.000000X1.600000*%
%TD*%
G04 APERTURE END LIST*
D10*
%TO.P,J3,2*%
%TO.N,GND*%
X227760000Y-124205000D03*
D11*
%TO.P,J3,1*%
%TO.N,VBAT*%
X226490000Y-124205000D03*
%TD*%
%TO.P,U3,5*%
%TO.N,Net-(R8-Pad1)*%
%TA.AperFunction,SMDPad,CuDef*%
G36*
G01*
X230615000Y-102165000D02*
X230615000Y-102465000D01*
G75*
G02*
X230465000Y-102615000I-150000J0D01*
G01*
X229440000Y-102615000D01*
G75*
G02*
X229290000Y-102465000I0J150000D01*
G01*
X229290000Y-102165000D01*
G75*
G02*
X229440000Y-102015000I150000J0D01*
G01*
X230465000Y-102015000D01*
G75*
G02*
X230615000Y-102165000I0J-150000D01*
G01*
G37*
%TD.AperFunction*%
%TO.P,U3,4*%
%TO.N,Net-(D2-Pad2)*%
%TA.AperFunction,SMDPad,CuDef*%
G36*
G01*
X230615000Y-100265000D02*
X230615000Y-100565000D01*
G75*
G02*
X230465000Y-100715000I-150000J0D01*
G01*
X229440000Y-100715000D01*
G75*
G02*
X229290000Y-100565000I0J150000D01*
G01*
X229290000Y-100265000D01*
G75*
G02*
X229440000Y-100115000I150000J0D01*
G01*
X230465000Y-100115000D01*
G75*
G02*
X230615000Y-100265000I0J-150000D01*
G01*
G37*
%TD.AperFunction*%
%TO.P,U3,3*%
%TO.N,VBAT*%
%TA.AperFunction,SMDPad,CuDef*%
G36*
G01*
X232890000Y-100265000D02*
X232890000Y-100565000D01*
G75*
G02*
X232740000Y-100715000I-150000J0D01*
G01*
X231715000Y-100715000D01*
G75*
G02*
X231565000Y-100565000I0J150000D01*
G01*
X231565000Y-100265000D01*
G75*
G02*
X231715000Y-100115000I150000J0D01*
G01*
X232740000Y-100115000D01*
G75*
G02*
X232890000Y-100265000I0J-150000D01*
G01*
G37*
%TD.AperFunction*%
%TO.P,U3,2*%
%TO.N,GND*%
%TA.AperFunction,SMDPad,CuDef*%
G36*
G01*
X232890000Y-101215000D02*
X232890000Y-101515000D01*
G75*
G02*
X232740000Y-101665000I-150000J0D01*
G01*
X231715000Y-101665000D01*
G75*
G02*
X231565000Y-101515000I0J150000D01*
G01*
X231565000Y-101215000D01*
G75*
G02*
X231715000Y-101065000I150000J0D01*
G01*
X232740000Y-101065000D01*
G75*
G02*
X232890000Y-101215000I0J-150000D01*
G01*
G37*
%TD.AperFunction*%
%TO.P,U3,1*%
%TO.N,Net-(R6-Pad2)*%
%TA.AperFunction,SMDPad,CuDef*%
G36*
G01*
X232890000Y-102165000D02*
X232890000Y-102465000D01*
G75*
G02*
X232740000Y-102615000I-150000J0D01*
G01*
X231715000Y-102615000D01*
G75*
G02*
X231565000Y-102465000I0J150000D01*
G01*
X231565000Y-102165000D01*
G75*
G02*
X231715000Y-102015000I150000J0D01*
G01*
X232740000Y-102015000D01*
G75*
G02*
X232890000Y-102165000I0J-150000D01*
G01*
G37*
%TD.AperFunction*%
%TD*%
D12*
%TO.P,Q2,3*%
%TO.N,EXT_VCC*%
X235648000Y-100805000D03*
%TO.P,Q2,2*%
%TO.N,VDD_H*%
X234698000Y-98805000D03*
%TO.P,Q2,1*%
%TO.N,EXT_VCC_CONTROL*%
X236598000Y-98805000D03*
%TD*%
D13*
%TO.P,Q1,3*%
%TO.N,VBAT*%
X231890000Y-105005000D03*
%TO.P,Q1,2*%
%TO.N,Net-(C1-Pad1)*%
X229890000Y-105955000D03*
%TO.P,Q1,1*%
%TO.N,VBUS*%
X229890000Y-104055000D03*
%TD*%
D14*
%TO.P,D1,2*%
%TO.N,VBUS*%
X231840000Y-107805000D03*
%TO.P,D1,1*%
%TO.N,Net-(C1-Pad1)*%
X229740000Y-107805000D03*
%TD*%
%TO.P,C2,2*%
%TO.N,GND*%
%TA.AperFunction,SMDPad,CuDef*%
G36*
G01*
X233977000Y-103663000D02*
X233977000Y-104163000D01*
G75*
G02*
X233752000Y-104388000I-225000J0D01*
G01*
X233302000Y-104388000D01*
G75*
G02*
X233077000Y-104163000I0J225000D01*
G01*
X233077000Y-103663000D01*
G75*
G02*
X233302000Y-103438000I225000J0D01*
G01*
X233752000Y-103438000D01*
G75*
G02*
X233977000Y-103663000I0J-225000D01*
G01*
G37*
%TD.AperFunction*%
%TO.P,C2,1*%
%TO.N,VBAT*%
%TA.AperFunction,SMDPad,CuDef*%
G36*
G01*
X235527000Y-103663000D02*
X235527000Y-104163000D01*
G75*
G02*
X235302000Y-104388000I-225000J0D01*
G01*
X234852000Y-104388000D01*
G75*
G02*
X234627000Y-104163000I0J225000D01*
G01*
X234627000Y-103663000D01*
G75*
G02*
X234852000Y-103438000I225000J0D01*
G01*
X235302000Y-103438000D01*
G75*
G02*
X235527000Y-103663000I0J-225000D01*
G01*
G37*
%TD.AperFunction*%
%TD*%
%TO.P,C1,2*%
%TO.N,GND*%
%TA.AperFunction,SMDPad,CuDef*%
G36*
G01*
X236540000Y-105030000D02*
X237040000Y-105030000D01*
G75*
G02*
X237265000Y-105255000I0J-225000D01*
G01*
X237265000Y-105705000D01*
G75*
G02*
X237040000Y-105930000I-225000J0D01*
G01*
X236540000Y-105930000D01*
G75*
G02*
X236315000Y-105705000I0J225000D01*
G01*
X236315000Y-105255000D01*
G75*
G02*
X236540000Y-105030000I225000J0D01*
G01*
G37*
%TD.AperFunction*%
%TO.P,C1,1*%
%TO.N,Net-(C1-Pad1)*%
%TA.AperFunction,SMDPad,CuDef*%
G36*
G01*
X236540000Y-103480000D02*
X237040000Y-103480000D01*
G75*
G02*
X237265000Y-103705000I0J-225000D01*
G01*
X237265000Y-104155000D01*
G75*
G02*
X237040000Y-104380000I-225000J0D01*
G01*
X236540000Y-104380000D01*
G75*
G02*
X236315000Y-104155000I0J225000D01*
G01*
X236315000Y-103705000D01*
G75*
G02*
X236540000Y-103480000I225000J0D01*
G01*
G37*
%TD.AperFunction*%
%TD*%
D15*
%TO.P,H1,*%
%TO.N,*%
X243090000Y-107205000D03*
%TD*%
%TO.P,R9,2*%
%TO.N,GND*%
%TA.AperFunction,SMDPad,CuDef*%
G36*
G01*
X229568500Y-94066500D02*
X230043500Y-94066500D01*
G75*
G02*
X230281000Y-94304000I0J-237500D01*
G01*
X230281000Y-94804000D01*
G75*
G02*
X230043500Y-95041500I-237500J0D01*
G01*
X229568500Y-95041500D01*
G75*
G02*
X229331000Y-94804000I0J237500D01*
G01*
X229331000Y-94304000D01*
G75*
G02*
X229568500Y-94066500I237500J0D01*
G01*
G37*
%TD.AperFunction*%
%TO.P,R9,1*%
%TO.N,Net-(D3-Pad1)*%
%TA.AperFunction,SMDPad,CuDef*%
G36*
G01*
X229568500Y-92241500D02*
X230043500Y-92241500D01*
G75*
G02*
X230281000Y-92479000I0J-237500D01*
G01*
X230281000Y-92979000D01*
G75*
G02*
X230043500Y-93216500I-237500J0D01*
G01*
X229568500Y-93216500D01*
G75*
G02*
X229331000Y-92979000I0J237500D01*
G01*
X229331000Y-92479000D01*
G75*
G02*
X229568500Y-92241500I237500J0D01*
G01*
G37*
%TD.AperFunction*%
%TD*%
%TO.P,D3,2*%
%TO.N,Net-(D3-Pad2)*%
%TA.AperFunction,SMDPad,CuDef*%
G36*
G01*
X230062250Y-89839000D02*
X229549750Y-89839000D01*
G75*
G02*
X229331000Y-89620250I0J218750D01*
G01*
X229331000Y-89182750D01*
G75*
G02*
X229549750Y-88964000I218750J0D01*
G01*
X230062250Y-88964000D01*
G75*
G02*
X230281000Y-89182750I0J-218750D01*
G01*
X230281000Y-89620250D01*
G75*
G02*
X230062250Y-89839000I-218750J0D01*
G01*
G37*
%TD.AperFunction*%
%TO.P,D3,1*%
%TO.N,Net-(D3-Pad1)*%
%TA.AperFunction,SMDPad,CuDef*%
G36*
G01*
X230062250Y-91414000D02*
X229549750Y-91414000D01*
G75*
G02*
X229331000Y-91195250I0J218750D01*
G01*
X229331000Y-90757750D01*
G75*
G02*
X229549750Y-90539000I218750J0D01*
G01*
X230062250Y-90539000D01*
G75*
G02*
X230281000Y-90757750I0J-218750D01*
G01*
X230281000Y-91195250D01*
G75*
G02*
X230062250Y-91414000I-218750J0D01*
G01*
G37*
%TD.AperFunction*%
%TD*%
D16*
%TO.P,Y1,2*%
%TO.N,Net-(U2-Pad11)*%
X239615000Y-108205000D03*
%TO.P,Y1,1*%
%TO.N,Net-(U2-Pad13)*%
X237765000Y-108205000D03*
%TD*%
D17*
%TO.P,J2,2*%
%TO.N,N/C*%
X226531102Y-93893757D03*
%TO.P,J2,4*%
X226531102Y-94393757D03*
%TO.P,J2,6*%
X226531102Y-94893757D03*
%TO.P,J2,66*%
X226531102Y-109889000D03*
%TO.P,J2,60*%
X226531102Y-108393757D03*
%TO.P,J2,62*%
X226531102Y-108893757D03*
%TO.P,J2,64*%
X226531102Y-109393757D03*
%TO.P,J2,16*%
X226531102Y-97393757D03*
%TO.P,J2,18*%
X226531102Y-97893757D03*
%TO.P,J2,20*%
X226531102Y-98393757D03*
%TO.P,J2,22*%
X226531102Y-98893757D03*
%TO.P,J2,24*%
X226531102Y-99393757D03*
%TO.P,J2,26*%
X226531102Y-99893757D03*
%TO.P,J2,28*%
X226531102Y-100393757D03*
%TO.P,J2,30*%
X226531102Y-100893757D03*
%TO.P,J2,32*%
X226531102Y-101393757D03*
%TO.P,J2,34*%
X226531102Y-101893757D03*
%TO.P,J2,36*%
X226531102Y-102393757D03*
%TO.P,J2,38*%
X226531102Y-102893757D03*
%TO.P,J2,40*%
X226531102Y-103393757D03*
%TO.P,J2,42*%
X226531102Y-103893757D03*
%TO.P,J2,44*%
X226531102Y-104393757D03*
%TO.P,J2,46*%
X226531102Y-104893757D03*
%TO.P,J2,48*%
X226531102Y-105393757D03*
%TO.P,J2,50*%
X226531102Y-105893757D03*
%TO.P,J2,52*%
X226531102Y-106393757D03*
%TO.P,J2,54*%
X226531102Y-106893757D03*
%TO.P,J2,56*%
X226531102Y-107393757D03*
%TO.P,J2,58*%
X226531102Y-107893757D03*
%TO.P,J2,68*%
X226531102Y-110393757D03*
%TO.P,J2,70*%
X226531102Y-110893757D03*
%TO.P,J2,72*%
X226531102Y-111393757D03*
%TO.P,J2,74*%
X226531102Y-111893757D03*
%TD*%
%TO.P,D2,2*%
%TO.N,Net-(D2-Pad2)*%
%TA.AperFunction,SMDPad,CuDef*%
G36*
G01*
X242254250Y-89864500D02*
X241741750Y-89864500D01*
G75*
G02*
X241523000Y-89645750I0J218750D01*
G01*
X241523000Y-89208250D01*
G75*
G02*
X241741750Y-88989500I218750J0D01*
G01*
X242254250Y-88989500D01*
G75*
G02*
X242473000Y-89208250I0J-218750D01*
G01*
X242473000Y-89645750D01*
G75*
G02*
X242254250Y-89864500I-218750J0D01*
G01*
G37*
%TD.AperFunction*%
%TO.P,D2,1*%
%TO.N,Net-(D2-Pad1)*%
%TA.AperFunction,SMDPad,CuDef*%
G36*
G01*
X242254250Y-91439500D02*
X241741750Y-91439500D01*
G75*
G02*
X241523000Y-91220750I0J218750D01*
G01*
X241523000Y-90783250D01*
G75*
G02*
X241741750Y-90564500I218750J0D01*
G01*
X242254250Y-90564500D01*
G75*
G02*
X242473000Y-90783250I0J-218750D01*
G01*
X242473000Y-91220750D01*
G75*
G02*
X242254250Y-91439500I-218750J0D01*
G01*
G37*
%TD.AperFunction*%
%TD*%
%TO.P,R7,2*%
%TO.N,GND*%
%TA.AperFunction,SMDPad,CuDef*%
G36*
G01*
X233977500Y-106967500D02*
X233977500Y-107442500D01*
G75*
G02*
X233740000Y-107680000I-237500J0D01*
G01*
X233240000Y-107680000D01*
G75*
G02*
X233002500Y-107442500I0J237500D01*
G01*
X233002500Y-106967500D01*
G75*
G02*
X233240000Y-106730000I237500J0D01*
G01*
X233740000Y-106730000D01*
G75*
G02*
X233977500Y-106967500I0J-237500D01*
G01*
G37*
%TD.AperFunction*%
%TO.P,R7,1*%
%TO.N,EXT_VCC_CONTROL*%
%TA.AperFunction,SMDPad,CuDef*%
G36*
G01*
X235802500Y-106967500D02*
X235802500Y-107442500D01*
G75*
G02*
X235565000Y-107680000I-237500J0D01*
G01*
X235065000Y-107680000D01*
G75*
G02*
X234827500Y-107442500I0J237500D01*
G01*
X234827500Y-106967500D01*
G75*
G02*
X235065000Y-106730000I237500J0D01*
G01*
X235565000Y-106730000D01*
G75*
G02*
X235802500Y-106967500I0J-237500D01*
G01*
G37*
%TD.AperFunction*%
%TD*%
%TO.P,R6,2*%
%TO.N,Net-(R6-Pad2)*%
%TA.AperFunction,SMDPad,CuDef*%
G36*
G01*
X241760500Y-94170000D02*
X242235500Y-94170000D01*
G75*
G02*
X242473000Y-94407500I0J-237500D01*
G01*
X242473000Y-94907500D01*
G75*
G02*
X242235500Y-95145000I-237500J0D01*
G01*
X241760500Y-95145000D01*
G75*
G02*
X241523000Y-94907500I0J237500D01*
G01*
X241523000Y-94407500D01*
G75*
G02*
X241760500Y-94170000I237500J0D01*
G01*
G37*
%TD.AperFunction*%
%TO.P,R6,1*%
%TO.N,Net-(D2-Pad1)*%
%TA.AperFunction,SMDPad,CuDef*%
G36*
G01*
X241760500Y-92345000D02*
X242235500Y-92345000D01*
G75*
G02*
X242473000Y-92582500I0J-237500D01*
G01*
X242473000Y-93082500D01*
G75*
G02*
X242235500Y-93320000I-237500J0D01*
G01*
X241760500Y-93320000D01*
G75*
G02*
X241523000Y-93082500I0J237500D01*
G01*
X241523000Y-92582500D01*
G75*
G02*
X241760500Y-92345000I237500J0D01*
G01*
G37*
%TD.AperFunction*%
%TD*%
%TO.P,R5,2*%
%TO.N,GND*%
%TA.AperFunction,SMDPad,CuDef*%
G36*
G01*
X235415000Y-102542500D02*
X235415000Y-102067500D01*
G75*
G02*
X235652500Y-101830000I237500J0D01*
G01*
X236152500Y-101830000D01*
G75*
G02*
X236390000Y-102067500I0J-237500D01*
G01*
X236390000Y-102542500D01*
G75*
G02*
X236152500Y-102780000I-237500J0D01*
G01*
X235652500Y-102780000D01*
G75*
G02*
X235415000Y-102542500I0J237500D01*
G01*
G37*
%TD.AperFunction*%
%TO.P,R5,1*%
%TO.N,BATTERY_MEASURE*%
%TA.AperFunction,SMDPad,CuDef*%
G36*
G01*
X233590000Y-102542500D02*
X233590000Y-102067500D01*
G75*
G02*
X233827500Y-101830000I237500J0D01*
G01*
X234327500Y-101830000D01*
G75*
G02*
X234565000Y-102067500I0J-237500D01*
G01*
X234565000Y-102542500D01*
G75*
G02*
X234327500Y-102780000I-237500J0D01*
G01*
X233827500Y-102780000D01*
G75*
G02*
X233590000Y-102542500I0J237500D01*
G01*
G37*
%TD.AperFunction*%
%TD*%
%TO.P,R4,2*%
%TO.N,BATTERY_MEASURE*%
%TA.AperFunction,SMDPad,CuDef*%
G36*
G01*
X233941000Y-105326500D02*
X233941000Y-105801500D01*
G75*
G02*
X233703500Y-106039000I-237500J0D01*
G01*
X233203500Y-106039000D01*
G75*
G02*
X232966000Y-105801500I0J237500D01*
G01*
X232966000Y-105326500D01*
G75*
G02*
X233203500Y-105089000I237500J0D01*
G01*
X233703500Y-105089000D01*
G75*
G02*
X233941000Y-105326500I0J-237500D01*
G01*
G37*
%TD.AperFunction*%
%TO.P,R4,1*%
%TO.N,VBAT*%
%TA.AperFunction,SMDPad,CuDef*%
G36*
G01*
X235766000Y-105326500D02*
X235766000Y-105801500D01*
G75*
G02*
X235528500Y-106039000I-237500J0D01*
G01*
X235028500Y-106039000D01*
G75*
G02*
X234791000Y-105801500I0J237500D01*
G01*
X234791000Y-105326500D01*
G75*
G02*
X235028500Y-105089000I237500J0D01*
G01*
X235528500Y-105089000D01*
G75*
G02*
X235766000Y-105326500I0J-237500D01*
G01*
G37*
%TD.AperFunction*%
%TD*%
%TO.P,R3,2*%
%TO.N,GND*%
%TA.AperFunction,SMDPad,CuDef*%
G36*
G01*
X231770500Y-98587500D02*
X231770500Y-99062500D01*
G75*
G02*
X231533000Y-99300000I-237500J0D01*
G01*
X231033000Y-99300000D01*
G75*
G02*
X230795500Y-99062500I0J237500D01*
G01*
X230795500Y-98587500D01*
G75*
G02*
X231033000Y-98350000I237500J0D01*
G01*
X231533000Y-98350000D01*
G75*
G02*
X231770500Y-98587500I0J-237500D01*
G01*
G37*
%TD.AperFunction*%
%TO.P,R3,1*%
%TO.N,Net-(J1-PadB5)*%
%TA.AperFunction,SMDPad,CuDef*%
G36*
G01*
X233595500Y-98587500D02*
X233595500Y-99062500D01*
G75*
G02*
X233358000Y-99300000I-237500J0D01*
G01*
X232858000Y-99300000D01*
G75*
G02*
X232620500Y-99062500I0J237500D01*
G01*
X232620500Y-98587500D01*
G75*
G02*
X232858000Y-98350000I237500J0D01*
G01*
X233358000Y-98350000D01*
G75*
G02*
X233595500Y-98587500I0J-237500D01*
G01*
G37*
%TD.AperFunction*%
%TD*%
%TO.P,R2,2*%
%TO.N,GND*%
%TA.AperFunction,SMDPad,CuDef*%
G36*
G01*
X239732500Y-99062500D02*
X239732500Y-98587500D01*
G75*
G02*
X239970000Y-98350000I237500J0D01*
G01*
X240470000Y-98350000D01*
G75*
G02*
X240707500Y-98587500I0J-237500D01*
G01*
X240707500Y-99062500D01*
G75*
G02*
X240470000Y-99300000I-237500J0D01*
G01*
X239970000Y-99300000D01*
G75*
G02*
X239732500Y-99062500I0J237500D01*
G01*
G37*
%TD.AperFunction*%
%TO.P,R2,1*%
%TO.N,Net-(J1-PadA5)*%
%TA.AperFunction,SMDPad,CuDef*%
G36*
G01*
X237907500Y-99062500D02*
X237907500Y-98587500D01*
G75*
G02*
X238145000Y-98350000I237500J0D01*
G01*
X238645000Y-98350000D01*
G75*
G02*
X238882500Y-98587500I0J-237500D01*
G01*
X238882500Y-99062500D01*
G75*
G02*
X238645000Y-99300000I-237500J0D01*
G01*
X238145000Y-99300000D01*
G75*
G02*
X237907500Y-99062500I0J237500D01*
G01*
G37*
%TD.AperFunction*%
%TD*%
%TO.P,R1,2*%
%TO.N,GND*%
%TA.AperFunction,SMDPad,CuDef*%
G36*
G01*
X242235500Y-96772500D02*
X241760500Y-96772500D01*
G75*
G02*
X241523000Y-96535000I0J237500D01*
G01*
X241523000Y-96035000D01*
G75*
G02*
X241760500Y-95797500I237500J0D01*
G01*
X242235500Y-95797500D01*
G75*
G02*
X242473000Y-96035000I0J-237500D01*
G01*
X242473000Y-96535000D01*
G75*
G02*
X242235500Y-96772500I-237500J0D01*
G01*
G37*
%TD.AperFunction*%
%TO.P,R1,1*%
%TO.N,VBUS*%
%TA.AperFunction,SMDPad,CuDef*%
G36*
G01*
X242235500Y-98597500D02*
X241760500Y-98597500D01*
G75*
G02*
X241523000Y-98360000I0J237500D01*
G01*
X241523000Y-97860000D01*
G75*
G02*
X241760500Y-97622500I237500J0D01*
G01*
X242235500Y-97622500D01*
G75*
G02*
X242473000Y-97860000I0J-237500D01*
G01*
X242473000Y-98360000D01*
G75*
G02*
X242235500Y-98597500I-237500J0D01*
G01*
G37*
%TD.AperFunction*%
%TD*%
%TO.P,U1,5*%
%TO.N,VDD_H*%
%TA.AperFunction,SMDPad,CuDef*%
G36*
G01*
X238404000Y-101334000D02*
X238104000Y-101334000D01*
G75*
G02*
X237954000Y-101184000I0J150000D01*
G01*
X237954000Y-100159000D01*
G75*
G02*
X238104000Y-100009000I150000J0D01*
G01*
X238404000Y-100009000D01*
G75*
G02*
X238554000Y-100159000I0J-150000D01*
G01*
X238554000Y-101184000D01*
G75*
G02*
X238404000Y-101334000I-150000J0D01*
G01*
G37*
%TD.AperFunction*%
%TO.P,U1,4*%
%TO.N,Net-(U1-Pad4)*%
%TA.AperFunction,SMDPad,CuDef*%
G36*
G01*
X240304000Y-101334000D02*
X240004000Y-101334000D01*
G75*
G02*
X239854000Y-101184000I0J150000D01*
G01*
X239854000Y-100159000D01*
G75*
G02*
X240004000Y-100009000I150000J0D01*
G01*
X240304000Y-100009000D01*
G75*
G02*
X240454000Y-100159000I0J-150000D01*
G01*
X240454000Y-101184000D01*
G75*
G02*
X240304000Y-101334000I-150000J0D01*
G01*
G37*
%TD.AperFunction*%
%TO.P,U1,3*%
%TO.N,Net-(C1-Pad1)*%
%TA.AperFunction,SMDPad,CuDef*%
G36*
G01*
X240304000Y-103609000D02*
X240004000Y-103609000D01*
G75*
G02*
X239854000Y-103459000I0J150000D01*
G01*
X239854000Y-102434000D01*
G75*
G02*
X240004000Y-102284000I150000J0D01*
G01*
X240304000Y-102284000D01*
G75*
G02*
X240454000Y-102434000I0J-150000D01*
G01*
X240454000Y-103459000D01*
G75*
G02*
X240304000Y-103609000I-150000J0D01*
G01*
G37*
%TD.AperFunction*%
%TO.P,U1,2*%
%TO.N,GND*%
%TA.AperFunction,SMDPad,CuDef*%
G36*
G01*
X239354000Y-103609000D02*
X239054000Y-103609000D01*
G75*
G02*
X238904000Y-103459000I0J150000D01*
G01*
X238904000Y-102434000D01*
G75*
G02*
X239054000Y-102284000I150000J0D01*
G01*
X239354000Y-102284000D01*
G75*
G02*
X239504000Y-102434000I0J-150000D01*
G01*
X239504000Y-103459000D01*
G75*
G02*
X239354000Y-103609000I-150000J0D01*
G01*
G37*
%TD.AperFunction*%
%TO.P,U1,1*%
%TO.N,Net-(C1-Pad1)*%
%TA.AperFunction,SMDPad,CuDef*%
G36*
G01*
X238404000Y-103609000D02*
X238104000Y-103609000D01*
G75*
G02*
X237954000Y-103459000I0J150000D01*
G01*
X237954000Y-102434000D01*
G75*
G02*
X238104000Y-102284000I150000J0D01*
G01*
X238404000Y-102284000D01*
G75*
G02*
X238554000Y-102434000I0J-150000D01*
G01*
X238554000Y-103459000D01*
G75*
G02*
X238404000Y-103609000I-150000J0D01*
G01*
G37*
%TD.AperFunction*%
%TD*%
%TO.P,R8,2*%
%TO.N,GND*%
%TA.AperFunction,SMDPad,CuDef*%
G36*
G01*
X241760500Y-101028000D02*
X242235500Y-101028000D01*
G75*
G02*
X242473000Y-101265500I0J-237500D01*
G01*
X242473000Y-101765500D01*
G75*
G02*
X242235500Y-102003000I-237500J0D01*
G01*
X241760500Y-102003000D01*
G75*
G02*
X241523000Y-101765500I0J237500D01*
G01*
X241523000Y-101265500D01*
G75*
G02*
X241760500Y-101028000I237500J0D01*
G01*
G37*
%TD.AperFunction*%
%TO.P,R8,1*%
%TO.N,Net-(R8-Pad1)*%
%TA.AperFunction,SMDPad,CuDef*%
G36*
G01*
X241760500Y-99203000D02*
X242235500Y-99203000D01*
G75*
G02*
X242473000Y-99440500I0J-237500D01*
G01*
X242473000Y-99940500D01*
G75*
G02*
X242235500Y-100178000I-237500J0D01*
G01*
X241760500Y-100178000D01*
G75*
G02*
X241523000Y-99940500I0J237500D01*
G01*
X241523000Y-99440500D01*
G75*
G02*
X241760500Y-99203000I237500J0D01*
G01*
G37*
%TD.AperFunction*%
%TD*%
D18*
%TO.P,U2,28*%
%TO.N,Net-(U2-Pad28)*%
X232115000Y-114379000D03*
D19*
%TO.P,U2,10*%
%TO.N,Net-(U2-Pad10)*%
X242275000Y-112347000D03*
%TO.P,U2,9*%
%TO.N,Net-(U2-Pad9)*%
X242275000Y-113617000D03*
%TO.P,U2,8*%
%TO.N,Net-(U2-Pad8)*%
X242275000Y-114887000D03*
%TO.P,U2,7*%
%TO.N,Net-(U2-Pad7)*%
X242275000Y-116157000D03*
%TO.P,U2,6*%
%TO.N,Net-(U2-Pad6)*%
X242275000Y-117427000D03*
%TO.P,U2,5*%
%TO.N,GND*%
X242275000Y-118697000D03*
%TO.P,U2,4*%
%TO.N,Net-(U2-Pad4)*%
X242275000Y-119967000D03*
%TO.P,U2,3*%
%TO.N,Net-(U2-Pad3)*%
X242275000Y-121237000D03*
%TO.P,U2,2*%
%TO.N,Net-(D3-Pad2)*%
X242275000Y-122507000D03*
%TO.P,U2,1*%
%TO.N,Net-(U2-Pad1)*%
X242275000Y-123777000D03*
%TO.P,U2,31*%
%TO.N,DATA+*%
X230037000Y-116157000D03*
%TO.P,U2,43*%
%TO.N,Net-(U2-Pad43)*%
X230037000Y-123777000D03*
%TO.P,U2,33*%
%TO.N,Net-(U2-Pad33)*%
X230037000Y-117427000D03*
%TO.P,U2,41*%
%TO.N,Net-(U2-Pad41)*%
X230037000Y-122507000D03*
%TO.P,U2,39*%
%TO.N,SWC*%
X230037000Y-121237000D03*
%TO.P,U2,37*%
%TO.N,SWD*%
X230037000Y-119967000D03*
%TO.P,U2,29*%
%TO.N,DATA-*%
X230037000Y-114887000D03*
%TO.P,U2,35*%
%TO.N,Net-(U2-Pad35)*%
X230037000Y-118697000D03*
%TO.P,U2,27*%
%TO.N,VBUS*%
X230037000Y-113617000D03*
%TO.P,U2,26*%
%TO.N,RESET*%
X230037000Y-112347000D03*
D20*
%TO.P,U2,23*%
%TO.N,VDD_H*%
X233006000Y-110128000D03*
%TO.P,U2,11*%
%TO.N,Net-(U2-Pad11)*%
X240626000Y-110128000D03*
%TO.P,U2,21*%
%TO.N,GND*%
X234276000Y-110128000D03*
%TO.P,U2,13*%
%TO.N,Net-(U2-Pad13)*%
X239356000Y-110128000D03*
%TO.P,U2,15*%
%TO.N,PROG*%
X238086000Y-110128000D03*
%TO.P,U2,17*%
%TO.N,EXT_VCC_CONTROL*%
X236816000Y-110128000D03*
%TO.P,U2,25*%
%TO.N,DCCH*%
X231736000Y-110128000D03*
%TO.P,U2,19*%
%TO.N,VDD_H*%
X235546000Y-110128000D03*
D18*
%TO.P,U2,30*%
%TO.N,Net-(U2-Pad30)*%
X232115000Y-115649000D03*
%TO.P,U2,32*%
%TO.N,Net-(U2-Pad32)*%
X232115000Y-116919000D03*
%TO.P,U2,34*%
%TO.N,Net-(U2-Pad34)*%
X232115000Y-118189000D03*
%TO.P,U2,36*%
%TO.N,Net-(U2-Pad36)*%
X232115000Y-119459000D03*
%TO.P,U2,38*%
%TO.N,Net-(U2-Pad38)*%
X232115000Y-120729000D03*
%TO.P,U2,40*%
%TO.N,Net-(U2-Pad40)*%
X232115000Y-121999000D03*
%TO.P,U2,42*%
%TO.N,Net-(U2-Pad42)*%
X232115000Y-123269000D03*
D21*
%TO.P,U2,14*%
%TO.N,Net-(U2-Pad14)*%
X238719000Y-111839000D03*
%TO.P,U2,12*%
%TO.N,Net-(U2-Pad12)*%
X239989000Y-111839000D03*
%TO.P,U2,20*%
%TO.N,Net-(U2-Pad20)*%
X234909000Y-111839000D03*
%TO.P,U2,16*%
%TO.N,Net-(U2-Pad16)*%
X237449000Y-111839000D03*
%TO.P,U2,22*%
%TO.N,Net-(U2-Pad22)*%
X233639000Y-111839000D03*
%TO.P,U2,24*%
%TO.N,GND*%
X232369000Y-111839000D03*
%TO.P,U2,18*%
%TO.N,BATTERY_MEASURE*%
X236179000Y-111839000D03*
%TD*%
D22*
%TO.P,J1,B1*%
%TO.N,GND*%
X232652000Y-96774000D03*
%TO.P,J1,A9*%
%TO.N,VBUS*%
X233452000Y-96774000D03*
%TO.P,J1,B9*%
X238352000Y-96774000D03*
%TO.P,J1,B12*%
%TO.N,GND*%
X239152000Y-96774000D03*
%TO.P,J1,A1*%
X239152000Y-96774000D03*
%TO.P,J1,A4*%
%TO.N,VBUS*%
X238352000Y-96774000D03*
%TO.P,J1,B4*%
X233452000Y-96774000D03*
%TO.P,J1,A12*%
%TO.N,GND*%
X232652000Y-96774000D03*
D23*
%TO.P,J1,B8*%
%TO.N,Net-(J1-PadB8)*%
X237652000Y-96774000D03*
%TO.P,J1,A5*%
%TO.N,Net-(J1-PadA5)*%
X237152000Y-96774000D03*
%TO.P,J1,B7*%
%TO.N,DATA-*%
X236652000Y-96774000D03*
%TO.P,J1,A7*%
X235652000Y-96774000D03*
%TO.P,J1,B6*%
%TO.N,DATA+*%
X235152000Y-96774000D03*
%TO.P,J1,A8*%
%TO.N,Net-(J1-PadA8)*%
X234652000Y-96774000D03*
%TO.P,J1,B5*%
%TO.N,Net-(J1-PadB5)*%
X234152000Y-96774000D03*
%TO.P,J1,A6*%
%TO.N,DATA+*%
X236152000Y-96774000D03*
D24*
%TO.P,J1,S1*%
%TO.N,GND*%
X231582000Y-95859000D03*
X240222000Y-95859000D03*
D25*
X240222000Y-91679000D03*
X231582000Y-91679000D03*
%TD*%
M02*
