M48
; DRILL file {KiCad (5.1.8-0-10_14)} date Saturday, November 21, 2020 at 07:35:46 AM
; FORMAT={-:-/ absolute / inch / decimal}
; #@! TF.CreationDate,2020-11-21T07:35:46-07:00
; #@! TF.GenerationSoftware,Kicad,Pcbnew,(5.1.8-0-10_14)
; #@! TF.FileFunction,Plated,1,2,PTH
FMAT,2
INCH
T1C0.0118
T2C0.0236
%
G90
G05
T1
X9.1991Y-4.5176
X9.2491Y-4.5176
X9.2991Y-4.5176
X9.3491Y-4.5176
X9.3991Y-4.5176
X9.4491Y-4.5176
X9.4991Y-4.5176
X9.5091Y-4.0676
X9.5091Y-4.1176
X9.5091Y-4.1676
X9.5091Y-4.2176
X9.5091Y-4.2676
X9.5091Y-4.3176
X9.5091Y-4.3676
X9.5091Y-4.4176
T2
G00X9.1799Y-3.6205
M15
G01X9.1799Y-3.5969
M16
G05
G00X9.1799Y-3.7949
M15
G01X9.1799Y-3.7516
M16
G05
G00X9.5201Y-3.6205
M15
G01X9.5201Y-3.5969
M16
G05
G00X9.5201Y-3.7949
M15
G01X9.5201Y-3.7516
M16
G05
T0
M30
