%TF.GenerationSoftware,KiCad,Pcbnew,(5.1.8-0-10_14)*%
%TF.CreationDate,2020-11-21T11:10:47-07:00*%
%TF.ProjectId,Ellow,456c6c6f-772e-46b6-9963-61645f706362,rev?*%
%TF.SameCoordinates,Original*%
%TF.FileFunction,Legend,Top*%
%TF.FilePolarity,Positive*%
%FSLAX46Y46*%
G04 Gerber Fmt 4.6, Leading zero omitted, Abs format (unit mm)*
G04 Created by KiCad (PCBNEW (5.1.8-0-10_14)) date 2020-11-21 11:10:47*
%MOMM*%
%LPD*%
G01*
G04 APERTURE LIST*
%ADD10C,0.120000*%
%ADD11C,0.150000*%
G04 APERTURE END LIST*
D10*
%TO.C,R9*%
X231408500Y-94863776D02*
X231408500Y-95373224D01*
X230363500Y-94863776D02*
X230363500Y-95373224D01*
%TO.C,D3*%
X230151000Y-90913000D02*
X230151000Y-93198000D01*
X230151000Y-93198000D02*
X231621000Y-93198000D01*
X231621000Y-93198000D02*
X231621000Y-90913000D01*
%TO.C,Y1*%
X232480000Y-119437000D02*
X235330000Y-119437000D01*
X235330000Y-119437000D02*
X235330000Y-117837000D01*
X235330000Y-117837000D02*
X232480000Y-117837000D01*
%TO.C,U3*%
X243130000Y-125515000D02*
X244930000Y-125515000D01*
X244930000Y-122295000D02*
X242480000Y-122295000D01*
%TO.C,D1*%
X241720000Y-121787000D02*
X243420000Y-121787000D01*
X243420000Y-121787000D02*
X243420000Y-118637000D01*
X241720000Y-121787000D02*
X241720000Y-118637000D01*
%TO.C,D2*%
X242914000Y-90786000D02*
X242914000Y-93071000D01*
X242914000Y-93071000D02*
X244384000Y-93071000D01*
X244384000Y-93071000D02*
X244384000Y-90786000D01*
%TO.C,C2*%
X238398267Y-118639000D02*
X238105733Y-118639000D01*
X238398267Y-117619000D02*
X238105733Y-117619000D01*
%TO.C,C1*%
X238398267Y-123719000D02*
X238105733Y-123719000D01*
X238398267Y-122699000D02*
X238105733Y-122699000D01*
%TO.C,R7*%
X237997276Y-124464500D02*
X238506724Y-124464500D01*
X237997276Y-125509500D02*
X238506724Y-125509500D01*
%TO.C,R6*%
X244171500Y-94863776D02*
X244171500Y-95373224D01*
X243126500Y-94863776D02*
X243126500Y-95373224D01*
%TO.C,R5*%
X237997276Y-120908500D02*
X238506724Y-120908500D01*
X237997276Y-121953500D02*
X238506724Y-121953500D01*
%TO.C,R4*%
X238506724Y-120302500D02*
X237997276Y-120302500D01*
X238506724Y-119257500D02*
X237997276Y-119257500D01*
%TO.C,R3*%
X248172500Y-107460276D02*
X248172500Y-107969724D01*
X247127500Y-107460276D02*
X247127500Y-107969724D01*
%TO.C,R2*%
X245349500Y-107969724D02*
X245349500Y-107460276D01*
X246394500Y-107969724D02*
X246394500Y-107460276D01*
%TO.C,R1*%
X245349500Y-104310224D02*
X245349500Y-103800776D01*
X246394500Y-104310224D02*
X246394500Y-103800776D01*
%TO.C,Q2*%
X245308000Y-114595000D02*
X246238000Y-114595000D01*
X248468000Y-114595000D02*
X247538000Y-114595000D01*
X248468000Y-114595000D02*
X248468000Y-111435000D01*
X245308000Y-114595000D02*
X245308000Y-113135000D01*
%TO.C,Q1*%
X233170000Y-123773000D02*
X233170000Y-122843000D01*
X233170000Y-120613000D02*
X233170000Y-121543000D01*
X233170000Y-120613000D02*
X230010000Y-120613000D01*
X233170000Y-123773000D02*
X231710000Y-123773000D01*
%TO.C,Bat+ Bat-*%
X235010000Y-127333000D02*
X235010000Y-124673000D01*
X232410000Y-127333000D02*
X235010000Y-127333000D01*
X232410000Y-124673000D02*
X235010000Y-124673000D01*
X232410000Y-127333000D02*
X232410000Y-124673000D01*
X231140000Y-127333000D02*
X229810000Y-127333000D01*
X229810000Y-127333000D02*
X229810000Y-126003000D01*
%TO.C,U1*%
X245872000Y-121467000D02*
X246672000Y-121467000D01*
X245872000Y-121467000D02*
X245072000Y-121467000D01*
X245872000Y-118347000D02*
X246672000Y-118347000D01*
X245872000Y-118347000D02*
X244072000Y-118347000D01*
%TO.C,R8*%
X247918500Y-123716276D02*
X247918500Y-124225724D01*
X246873500Y-123716276D02*
X246873500Y-124225724D01*
%TO.C,J1*%
X241999000Y-88956000D02*
X232599000Y-88956000D01*
X232599000Y-94756000D02*
X232599000Y-92756000D01*
X232599000Y-90856000D02*
X232599000Y-88956000D01*
X241999000Y-94756000D02*
X241999000Y-92756000D01*
X241999000Y-90856000D02*
X241999000Y-88956000D01*
%TO.C,R9*%
D11*
X230068380Y-95285166D02*
X229592190Y-95618500D01*
X230068380Y-95856595D02*
X229068380Y-95856595D01*
X229068380Y-95475642D01*
X229116000Y-95380404D01*
X229163619Y-95332785D01*
X229258857Y-95285166D01*
X229401714Y-95285166D01*
X229496952Y-95332785D01*
X229544571Y-95380404D01*
X229592190Y-95475642D01*
X229592190Y-95856595D01*
X230068380Y-94808976D02*
X230068380Y-94618500D01*
X230020761Y-94523261D01*
X229973142Y-94475642D01*
X229830285Y-94380404D01*
X229639809Y-94332785D01*
X229258857Y-94332785D01*
X229163619Y-94380404D01*
X229116000Y-94428023D01*
X229068380Y-94523261D01*
X229068380Y-94713738D01*
X229116000Y-94808976D01*
X229163619Y-94856595D01*
X229258857Y-94904214D01*
X229496952Y-94904214D01*
X229592190Y-94856595D01*
X229639809Y-94808976D01*
X229687428Y-94713738D01*
X229687428Y-94523261D01*
X229639809Y-94428023D01*
X229592190Y-94380404D01*
X229496952Y-94332785D01*
%TO.C,D3*%
X229908380Y-92451095D02*
X228908380Y-92451095D01*
X228908380Y-92213000D01*
X228956000Y-92070142D01*
X229051238Y-91974904D01*
X229146476Y-91927285D01*
X229336952Y-91879666D01*
X229479809Y-91879666D01*
X229670285Y-91927285D01*
X229765523Y-91974904D01*
X229860761Y-92070142D01*
X229908380Y-92213000D01*
X229908380Y-92451095D01*
X228908380Y-91546333D02*
X228908380Y-90927285D01*
X229289333Y-91260619D01*
X229289333Y-91117761D01*
X229336952Y-91022523D01*
X229384571Y-90974904D01*
X229479809Y-90927285D01*
X229717904Y-90927285D01*
X229813142Y-90974904D01*
X229860761Y-91022523D01*
X229908380Y-91117761D01*
X229908380Y-91403476D01*
X229860761Y-91498714D01*
X229813142Y-91546333D01*
%TO.C,Y1*%
X231397690Y-119176690D02*
X231873880Y-119176690D01*
X230873880Y-119510023D02*
X231397690Y-119176690D01*
X230873880Y-118843357D01*
X231873880Y-117986214D02*
X231873880Y-118557642D01*
X231873880Y-118271928D02*
X230873880Y-118271928D01*
X231016738Y-118367166D01*
X231111976Y-118462404D01*
X231159595Y-118557642D01*
%TO.C,J2*%
X223192380Y-95447333D02*
X223906666Y-95447333D01*
X224049523Y-95494952D01*
X224144761Y-95590190D01*
X224192380Y-95733047D01*
X224192380Y-95828285D01*
X223287619Y-95018761D02*
X223240000Y-94971142D01*
X223192380Y-94875904D01*
X223192380Y-94637809D01*
X223240000Y-94542571D01*
X223287619Y-94494952D01*
X223382857Y-94447333D01*
X223478095Y-94447333D01*
X223620952Y-94494952D01*
X224192380Y-95066380D01*
X224192380Y-94447333D01*
%TO.C,U3*%
X245110095Y-125963380D02*
X245110095Y-126772904D01*
X245157714Y-126868142D01*
X245205333Y-126915761D01*
X245300571Y-126963380D01*
X245491047Y-126963380D01*
X245586285Y-126915761D01*
X245633904Y-126868142D01*
X245681523Y-126772904D01*
X245681523Y-125963380D01*
X246062476Y-125963380D02*
X246681523Y-125963380D01*
X246348190Y-126344333D01*
X246491047Y-126344333D01*
X246586285Y-126391952D01*
X246633904Y-126439571D01*
X246681523Y-126534809D01*
X246681523Y-126772904D01*
X246633904Y-126868142D01*
X246586285Y-126915761D01*
X246491047Y-126963380D01*
X246205333Y-126963380D01*
X246110095Y-126915761D01*
X246062476Y-126868142D01*
%TO.C,D1*%
X241831904Y-117164380D02*
X241831904Y-116164380D01*
X242070000Y-116164380D01*
X242212857Y-116212000D01*
X242308095Y-116307238D01*
X242355714Y-116402476D01*
X242403333Y-116592952D01*
X242403333Y-116735809D01*
X242355714Y-116926285D01*
X242308095Y-117021523D01*
X242212857Y-117116761D01*
X242070000Y-117164380D01*
X241831904Y-117164380D01*
X243355714Y-117164380D02*
X242784285Y-117164380D01*
X243070000Y-117164380D02*
X243070000Y-116164380D01*
X242974761Y-116307238D01*
X242879523Y-116402476D01*
X242784285Y-116450095D01*
%TO.C,D2*%
X245371380Y-92324095D02*
X244371380Y-92324095D01*
X244371380Y-92086000D01*
X244419000Y-91943142D01*
X244514238Y-91847904D01*
X244609476Y-91800285D01*
X244799952Y-91752666D01*
X244942809Y-91752666D01*
X245133285Y-91800285D01*
X245228523Y-91847904D01*
X245323761Y-91943142D01*
X245371380Y-92086000D01*
X245371380Y-92324095D01*
X244466619Y-91371714D02*
X244419000Y-91324095D01*
X244371380Y-91228857D01*
X244371380Y-90990761D01*
X244419000Y-90895523D01*
X244466619Y-90847904D01*
X244561857Y-90800285D01*
X244657095Y-90800285D01*
X244799952Y-90847904D01*
X245371380Y-91419333D01*
X245371380Y-90800285D01*
%TO.C,C2*%
X240895142Y-118295666D02*
X240942761Y-118343285D01*
X240990380Y-118486142D01*
X240990380Y-118581380D01*
X240942761Y-118724238D01*
X240847523Y-118819476D01*
X240752285Y-118867095D01*
X240561809Y-118914714D01*
X240418952Y-118914714D01*
X240228476Y-118867095D01*
X240133238Y-118819476D01*
X240038000Y-118724238D01*
X239990380Y-118581380D01*
X239990380Y-118486142D01*
X240038000Y-118343285D01*
X240085619Y-118295666D01*
X240085619Y-117914714D02*
X240038000Y-117867095D01*
X239990380Y-117771857D01*
X239990380Y-117533761D01*
X240038000Y-117438523D01*
X240085619Y-117390904D01*
X240180857Y-117343285D01*
X240276095Y-117343285D01*
X240418952Y-117390904D01*
X240990380Y-117962333D01*
X240990380Y-117343285D01*
%TO.C,C1*%
X236323142Y-123375666D02*
X236370761Y-123423285D01*
X236418380Y-123566142D01*
X236418380Y-123661380D01*
X236370761Y-123804238D01*
X236275523Y-123899476D01*
X236180285Y-123947095D01*
X235989809Y-123994714D01*
X235846952Y-123994714D01*
X235656476Y-123947095D01*
X235561238Y-123899476D01*
X235466000Y-123804238D01*
X235418380Y-123661380D01*
X235418380Y-123566142D01*
X235466000Y-123423285D01*
X235513619Y-123375666D01*
X236418380Y-122423285D02*
X236418380Y-122994714D01*
X236418380Y-122709000D02*
X235418380Y-122709000D01*
X235561238Y-122804238D01*
X235656476Y-122899476D01*
X235704095Y-122994714D01*
%TO.C,R7*%
X240990380Y-125153666D02*
X240514190Y-125487000D01*
X240990380Y-125725095D02*
X239990380Y-125725095D01*
X239990380Y-125344142D01*
X240038000Y-125248904D01*
X240085619Y-125201285D01*
X240180857Y-125153666D01*
X240323714Y-125153666D01*
X240418952Y-125201285D01*
X240466571Y-125248904D01*
X240514190Y-125344142D01*
X240514190Y-125725095D01*
X239990380Y-124820333D02*
X239990380Y-124153666D01*
X240990380Y-124582238D01*
%TO.C,R6*%
X245531380Y-95285166D02*
X245055190Y-95618500D01*
X245531380Y-95856595D02*
X244531380Y-95856595D01*
X244531380Y-95475642D01*
X244579000Y-95380404D01*
X244626619Y-95332785D01*
X244721857Y-95285166D01*
X244864714Y-95285166D01*
X244959952Y-95332785D01*
X245007571Y-95380404D01*
X245055190Y-95475642D01*
X245055190Y-95856595D01*
X244531380Y-94428023D02*
X244531380Y-94618500D01*
X244579000Y-94713738D01*
X244626619Y-94761357D01*
X244769476Y-94856595D01*
X244959952Y-94904214D01*
X245340904Y-94904214D01*
X245436142Y-94856595D01*
X245483761Y-94808976D01*
X245531380Y-94713738D01*
X245531380Y-94523261D01*
X245483761Y-94428023D01*
X245436142Y-94380404D01*
X245340904Y-94332785D01*
X245102809Y-94332785D01*
X245007571Y-94380404D01*
X244959952Y-94428023D01*
X244912333Y-94523261D01*
X244912333Y-94713738D01*
X244959952Y-94808976D01*
X245007571Y-94856595D01*
X245102809Y-94904214D01*
%TO.C,R5*%
X240990380Y-121597666D02*
X240514190Y-121931000D01*
X240990380Y-122169095D02*
X239990380Y-122169095D01*
X239990380Y-121788142D01*
X240038000Y-121692904D01*
X240085619Y-121645285D01*
X240180857Y-121597666D01*
X240323714Y-121597666D01*
X240418952Y-121645285D01*
X240466571Y-121692904D01*
X240514190Y-121788142D01*
X240514190Y-122169095D01*
X239990380Y-120692904D02*
X239990380Y-121169095D01*
X240466571Y-121216714D01*
X240418952Y-121169095D01*
X240371333Y-121073857D01*
X240371333Y-120835761D01*
X240418952Y-120740523D01*
X240466571Y-120692904D01*
X240561809Y-120645285D01*
X240799904Y-120645285D01*
X240895142Y-120692904D01*
X240942761Y-120740523D01*
X240990380Y-120835761D01*
X240990380Y-121073857D01*
X240942761Y-121169095D01*
X240895142Y-121216714D01*
%TO.C,R4*%
X236418380Y-119819666D02*
X235942190Y-120153000D01*
X236418380Y-120391095D02*
X235418380Y-120391095D01*
X235418380Y-120010142D01*
X235466000Y-119914904D01*
X235513619Y-119867285D01*
X235608857Y-119819666D01*
X235751714Y-119819666D01*
X235846952Y-119867285D01*
X235894571Y-119914904D01*
X235942190Y-120010142D01*
X235942190Y-120391095D01*
X235751714Y-118962523D02*
X236418380Y-118962523D01*
X235370761Y-119200619D02*
X236085047Y-119438714D01*
X236085047Y-118819666D01*
%TO.C,R3*%
X247483333Y-110453380D02*
X247150000Y-109977190D01*
X246911904Y-110453380D02*
X246911904Y-109453380D01*
X247292857Y-109453380D01*
X247388095Y-109501000D01*
X247435714Y-109548619D01*
X247483333Y-109643857D01*
X247483333Y-109786714D01*
X247435714Y-109881952D01*
X247388095Y-109929571D01*
X247292857Y-109977190D01*
X246911904Y-109977190D01*
X247816666Y-109453380D02*
X248435714Y-109453380D01*
X248102380Y-109834333D01*
X248245238Y-109834333D01*
X248340476Y-109881952D01*
X248388095Y-109929571D01*
X248435714Y-110024809D01*
X248435714Y-110262904D01*
X248388095Y-110358142D01*
X248340476Y-110405761D01*
X248245238Y-110453380D01*
X247959523Y-110453380D01*
X247864285Y-110405761D01*
X247816666Y-110358142D01*
%TO.C,R2*%
X245705333Y-110453380D02*
X245372000Y-109977190D01*
X245133904Y-110453380D02*
X245133904Y-109453380D01*
X245514857Y-109453380D01*
X245610095Y-109501000D01*
X245657714Y-109548619D01*
X245705333Y-109643857D01*
X245705333Y-109786714D01*
X245657714Y-109881952D01*
X245610095Y-109929571D01*
X245514857Y-109977190D01*
X245133904Y-109977190D01*
X246086285Y-109548619D02*
X246133904Y-109501000D01*
X246229142Y-109453380D01*
X246467238Y-109453380D01*
X246562476Y-109501000D01*
X246610095Y-109548619D01*
X246657714Y-109643857D01*
X246657714Y-109739095D01*
X246610095Y-109881952D01*
X246038666Y-110453380D01*
X246657714Y-110453380D01*
%TO.C,R1*%
X245705333Y-101967880D02*
X245372000Y-101491690D01*
X245133904Y-101967880D02*
X245133904Y-100967880D01*
X245514857Y-100967880D01*
X245610095Y-101015500D01*
X245657714Y-101063119D01*
X245705333Y-101158357D01*
X245705333Y-101301214D01*
X245657714Y-101396452D01*
X245610095Y-101444071D01*
X245514857Y-101491690D01*
X245133904Y-101491690D01*
X246657714Y-101967880D02*
X246086285Y-101967880D01*
X246372000Y-101967880D02*
X246372000Y-100967880D01*
X246276761Y-101110738D01*
X246181523Y-101205976D01*
X246086285Y-101253595D01*
%TO.C,Q2*%
X246102119Y-115708738D02*
X246054500Y-115803976D01*
X245959261Y-115899214D01*
X245816404Y-116042071D01*
X245768785Y-116137309D01*
X245768785Y-116232547D01*
X246006880Y-116184928D02*
X245959261Y-116280166D01*
X245864023Y-116375404D01*
X245673547Y-116423023D01*
X245340214Y-116423023D01*
X245149738Y-116375404D01*
X245054500Y-116280166D01*
X245006880Y-116184928D01*
X245006880Y-115994452D01*
X245054500Y-115899214D01*
X245149738Y-115803976D01*
X245340214Y-115756357D01*
X245673547Y-115756357D01*
X245864023Y-115803976D01*
X245959261Y-115899214D01*
X246006880Y-115994452D01*
X246006880Y-116184928D01*
X245102119Y-115375404D02*
X245054500Y-115327785D01*
X245006880Y-115232547D01*
X245006880Y-114994452D01*
X245054500Y-114899214D01*
X245102119Y-114851595D01*
X245197357Y-114803976D01*
X245292595Y-114803976D01*
X245435452Y-114851595D01*
X246006880Y-115423023D01*
X246006880Y-114803976D01*
%TO.C,Q1*%
X234481619Y-120764238D02*
X234434000Y-120859476D01*
X234338761Y-120954714D01*
X234195904Y-121097571D01*
X234148285Y-121192809D01*
X234148285Y-121288047D01*
X234386380Y-121240428D02*
X234338761Y-121335666D01*
X234243523Y-121430904D01*
X234053047Y-121478523D01*
X233719714Y-121478523D01*
X233529238Y-121430904D01*
X233434000Y-121335666D01*
X233386380Y-121240428D01*
X233386380Y-121049952D01*
X233434000Y-120954714D01*
X233529238Y-120859476D01*
X233719714Y-120811857D01*
X234053047Y-120811857D01*
X234243523Y-120859476D01*
X234338761Y-120954714D01*
X234386380Y-121049952D01*
X234386380Y-121240428D01*
X234386380Y-119859476D02*
X234386380Y-120430904D01*
X234386380Y-120145190D02*
X233386380Y-120145190D01*
X233529238Y-120240428D01*
X233624476Y-120335666D01*
X233672095Y-120430904D01*
%TO.C,Bat+ Bat-*%
X229394190Y-128217571D02*
X229537047Y-128265190D01*
X229584666Y-128312809D01*
X229632285Y-128408047D01*
X229632285Y-128550904D01*
X229584666Y-128646142D01*
X229537047Y-128693761D01*
X229441809Y-128741380D01*
X229060857Y-128741380D01*
X229060857Y-127741380D01*
X229394190Y-127741380D01*
X229489428Y-127789000D01*
X229537047Y-127836619D01*
X229584666Y-127931857D01*
X229584666Y-128027095D01*
X229537047Y-128122333D01*
X229489428Y-128169952D01*
X229394190Y-128217571D01*
X229060857Y-128217571D01*
X230489428Y-128741380D02*
X230489428Y-128217571D01*
X230441809Y-128122333D01*
X230346571Y-128074714D01*
X230156095Y-128074714D01*
X230060857Y-128122333D01*
X230489428Y-128693761D02*
X230394190Y-128741380D01*
X230156095Y-128741380D01*
X230060857Y-128693761D01*
X230013238Y-128598523D01*
X230013238Y-128503285D01*
X230060857Y-128408047D01*
X230156095Y-128360428D01*
X230394190Y-128360428D01*
X230489428Y-128312809D01*
X230822761Y-128074714D02*
X231203714Y-128074714D01*
X230965619Y-127741380D02*
X230965619Y-128598523D01*
X231013238Y-128693761D01*
X231108476Y-128741380D01*
X231203714Y-128741380D01*
X231537047Y-128360428D02*
X232298952Y-128360428D01*
X231918000Y-128741380D02*
X231918000Y-127979476D01*
X233870380Y-128217571D02*
X234013238Y-128265190D01*
X234060857Y-128312809D01*
X234108476Y-128408047D01*
X234108476Y-128550904D01*
X234060857Y-128646142D01*
X234013238Y-128693761D01*
X233918000Y-128741380D01*
X233537047Y-128741380D01*
X233537047Y-127741380D01*
X233870380Y-127741380D01*
X233965619Y-127789000D01*
X234013238Y-127836619D01*
X234060857Y-127931857D01*
X234060857Y-128027095D01*
X234013238Y-128122333D01*
X233965619Y-128169952D01*
X233870380Y-128217571D01*
X233537047Y-128217571D01*
X234965619Y-128741380D02*
X234965619Y-128217571D01*
X234918000Y-128122333D01*
X234822761Y-128074714D01*
X234632285Y-128074714D01*
X234537047Y-128122333D01*
X234965619Y-128693761D02*
X234870380Y-128741380D01*
X234632285Y-128741380D01*
X234537047Y-128693761D01*
X234489428Y-128598523D01*
X234489428Y-128503285D01*
X234537047Y-128408047D01*
X234632285Y-128360428D01*
X234870380Y-128360428D01*
X234965619Y-128312809D01*
X235298952Y-128074714D02*
X235679904Y-128074714D01*
X235441809Y-127741380D02*
X235441809Y-128598523D01*
X235489428Y-128693761D01*
X235584666Y-128741380D01*
X235679904Y-128741380D01*
X236013238Y-128360428D02*
X236775142Y-128360428D01*
%TO.C,U1*%
X245110095Y-116959380D02*
X245110095Y-117768904D01*
X245157714Y-117864142D01*
X245205333Y-117911761D01*
X245300571Y-117959380D01*
X245491047Y-117959380D01*
X245586285Y-117911761D01*
X245633904Y-117864142D01*
X245681523Y-117768904D01*
X245681523Y-116959380D01*
X246681523Y-117959380D02*
X246110095Y-117959380D01*
X246395809Y-117959380D02*
X246395809Y-116959380D01*
X246300571Y-117102238D01*
X246205333Y-117197476D01*
X246110095Y-117245095D01*
%TO.C,R8*%
X249278380Y-124137666D02*
X248802190Y-124471000D01*
X249278380Y-124709095D02*
X248278380Y-124709095D01*
X248278380Y-124328142D01*
X248326000Y-124232904D01*
X248373619Y-124185285D01*
X248468857Y-124137666D01*
X248611714Y-124137666D01*
X248706952Y-124185285D01*
X248754571Y-124232904D01*
X248802190Y-124328142D01*
X248802190Y-124709095D01*
X248706952Y-123566238D02*
X248659333Y-123661476D01*
X248611714Y-123709095D01*
X248516476Y-123756714D01*
X248468857Y-123756714D01*
X248373619Y-123709095D01*
X248326000Y-123661476D01*
X248278380Y-123566238D01*
X248278380Y-123375761D01*
X248326000Y-123280523D01*
X248373619Y-123232904D01*
X248468857Y-123185285D01*
X248516476Y-123185285D01*
X248611714Y-123232904D01*
X248659333Y-123280523D01*
X248706952Y-123375761D01*
X248706952Y-123566238D01*
X248754571Y-123661476D01*
X248802190Y-123709095D01*
X248897428Y-123756714D01*
X249087904Y-123756714D01*
X249183142Y-123709095D01*
X249230761Y-123661476D01*
X249278380Y-123566238D01*
X249278380Y-123375761D01*
X249230761Y-123280523D01*
X249183142Y-123232904D01*
X249087904Y-123185285D01*
X248897428Y-123185285D01*
X248802190Y-123232904D01*
X248754571Y-123280523D01*
X248706952Y-123375761D01*
%TO.C,U2*%
X236727628Y-108545605D02*
X236727628Y-109355129D01*
X236775247Y-109450367D01*
X236822866Y-109497986D01*
X236918104Y-109545605D01*
X237108580Y-109545605D01*
X237203818Y-109497986D01*
X237251437Y-109450367D01*
X237299056Y-109355129D01*
X237299056Y-108545605D01*
X237727628Y-108640844D02*
X237775247Y-108593225D01*
X237870485Y-108545605D01*
X238108580Y-108545605D01*
X238203818Y-108593225D01*
X238251437Y-108640844D01*
X238299056Y-108736082D01*
X238299056Y-108831320D01*
X238251437Y-108974177D01*
X237680009Y-109545605D01*
X238299056Y-109545605D01*
X231275714Y-100893571D02*
X231609047Y-100893571D01*
X231751904Y-101417380D02*
X231275714Y-101417380D01*
X231275714Y-100417380D01*
X231751904Y-100417380D01*
X232085238Y-100417380D02*
X232751904Y-100417380D01*
X232323333Y-101417380D01*
X233037619Y-100417380D02*
X233656666Y-100417380D01*
X233323333Y-100798333D01*
X233466190Y-100798333D01*
X233561428Y-100845952D01*
X233609047Y-100893571D01*
X233656666Y-100988809D01*
X233656666Y-101226904D01*
X233609047Y-101322142D01*
X233561428Y-101369761D01*
X233466190Y-101417380D01*
X233180476Y-101417380D01*
X233085238Y-101369761D01*
X233037619Y-101322142D01*
X234085238Y-101036428D02*
X234847142Y-101036428D01*
X235275714Y-100512619D02*
X235323333Y-100465000D01*
X235418571Y-100417380D01*
X235656666Y-100417380D01*
X235751904Y-100465000D01*
X235799523Y-100512619D01*
X235847142Y-100607857D01*
X235847142Y-100703095D01*
X235799523Y-100845952D01*
X235228095Y-101417380D01*
X235847142Y-101417380D01*
X236799523Y-100465000D02*
X236704285Y-100417380D01*
X236561428Y-100417380D01*
X236418571Y-100465000D01*
X236323333Y-100560238D01*
X236275714Y-100655476D01*
X236228095Y-100845952D01*
X236228095Y-100988809D01*
X236275714Y-101179285D01*
X236323333Y-101274523D01*
X236418571Y-101369761D01*
X236561428Y-101417380D01*
X236656666Y-101417380D01*
X236799523Y-101369761D01*
X236847142Y-101322142D01*
X236847142Y-100988809D01*
X236656666Y-100988809D01*
X237704285Y-100750714D02*
X237704285Y-101417380D01*
X237466190Y-100369761D02*
X237228095Y-101084047D01*
X237847142Y-101084047D01*
X238228095Y-101417380D02*
X238228095Y-100417380D01*
X238561428Y-101131666D01*
X238894761Y-100417380D01*
X238894761Y-101417380D01*
X239561428Y-100417380D02*
X239656666Y-100417380D01*
X239751904Y-100465000D01*
X239799523Y-100512619D01*
X239847142Y-100607857D01*
X239894761Y-100798333D01*
X239894761Y-101036428D01*
X239847142Y-101226904D01*
X239799523Y-101322142D01*
X239751904Y-101369761D01*
X239656666Y-101417380D01*
X239561428Y-101417380D01*
X239466190Y-101369761D01*
X239418571Y-101322142D01*
X239370952Y-101226904D01*
X239323333Y-101036428D01*
X239323333Y-100798333D01*
X239370952Y-100607857D01*
X239418571Y-100512619D01*
X239466190Y-100465000D01*
X239561428Y-100417380D01*
X240466190Y-100845952D02*
X240370952Y-100798333D01*
X240323333Y-100750714D01*
X240275714Y-100655476D01*
X240275714Y-100607857D01*
X240323333Y-100512619D01*
X240370952Y-100465000D01*
X240466190Y-100417380D01*
X240656666Y-100417380D01*
X240751904Y-100465000D01*
X240799523Y-100512619D01*
X240847142Y-100607857D01*
X240847142Y-100655476D01*
X240799523Y-100750714D01*
X240751904Y-100798333D01*
X240656666Y-100845952D01*
X240466190Y-100845952D01*
X240370952Y-100893571D01*
X240323333Y-100941190D01*
X240275714Y-101036428D01*
X240275714Y-101226904D01*
X240323333Y-101322142D01*
X240370952Y-101369761D01*
X240466190Y-101417380D01*
X240656666Y-101417380D01*
X240751904Y-101369761D01*
X240799523Y-101322142D01*
X240847142Y-101226904D01*
X240847142Y-101036428D01*
X240799523Y-100941190D01*
X240751904Y-100893571D01*
X240656666Y-100845952D01*
X241228095Y-101369761D02*
X241370952Y-101417380D01*
X241609047Y-101417380D01*
X241704285Y-101369761D01*
X241751904Y-101322142D01*
X241799523Y-101226904D01*
X241799523Y-101131666D01*
X241751904Y-101036428D01*
X241704285Y-100988809D01*
X241609047Y-100941190D01*
X241418571Y-100893571D01*
X241323333Y-100845952D01*
X241275714Y-100798333D01*
X241228095Y-100703095D01*
X241228095Y-100607857D01*
X241275714Y-100512619D01*
X241323333Y-100465000D01*
X241418571Y-100417380D01*
X241656666Y-100417380D01*
X241799523Y-100465000D01*
X242751904Y-101417380D02*
X242180476Y-101417380D01*
X242466190Y-101417380D02*
X242466190Y-100417380D01*
X242370952Y-100560238D01*
X242275714Y-100655476D01*
X242180476Y-100703095D01*
X243751904Y-101322142D02*
X243704285Y-101369761D01*
X243561428Y-101417380D01*
X243466190Y-101417380D01*
X243323333Y-101369761D01*
X243228095Y-101274523D01*
X243180476Y-101179285D01*
X243132857Y-100988809D01*
X243132857Y-100845952D01*
X243180476Y-100655476D01*
X243228095Y-100560238D01*
X243323333Y-100465000D01*
X243466190Y-100417380D01*
X243561428Y-100417380D01*
X243704285Y-100465000D01*
X243751904Y-100512619D01*
%TO.C,J1*%
X236965666Y-97953380D02*
X236965666Y-98667666D01*
X236918047Y-98810523D01*
X236822809Y-98905761D01*
X236679952Y-98953380D01*
X236584714Y-98953380D01*
X237965666Y-98953380D02*
X237394238Y-98953380D01*
X237679952Y-98953380D02*
X237679952Y-97953380D01*
X237584714Y-98096238D01*
X237489476Y-98191476D01*
X237394238Y-98239095D01*
%TD*%
M02*
