%TF.GenerationSoftware,KiCad,Pcbnew,(5.1.8-0-10_14)*%
%TF.CreationDate,2020-11-22T12:38:21-07:00*%
%TF.ProjectId,Ellow,456c6c6f-772e-46b6-9963-61645f706362,rev?*%
%TF.SameCoordinates,Original*%
%TF.FileFunction,Profile,NP*%
%FSLAX46Y46*%
G04 Gerber Fmt 4.6, Leading zero omitted, Abs format (unit mm)*
G04 Created by KiCad (PCBNEW (5.1.8-0-10_14)) date 2020-11-22 12:38:21*
%MOMM*%
%LPD*%
G01*
G04 APERTURE LIST*
%TA.AperFunction,Profile*%
%ADD10C,0.050000*%
%TD*%
G04 APERTURE END LIST*
D10*
X242590000Y-88405000D02*
X229290000Y-88405000D01*
X228790000Y-88905000D02*
G75*
G02*
X229290000Y-88405000I500000J0D01*
G01*
X228790000Y-121905000D02*
G75*
G02*
X228290000Y-122405000I-500000J0D01*
G01*
X225290000Y-122405000D02*
X228290000Y-122405000D01*
X224790000Y-122905000D02*
G75*
G02*
X225290000Y-122405000I500000J0D01*
G01*
X225290000Y-126005000D02*
G75*
G02*
X224790000Y-125505000I0J500000D01*
G01*
X243090000Y-125505000D02*
G75*
G02*
X242590000Y-126005000I-500000J0D01*
G01*
X242590000Y-126005000D02*
X225290000Y-126005000D01*
X242590000Y-88405000D02*
G75*
G02*
X243090000Y-88905000I0J-500000D01*
G01*
X224790000Y-122905000D02*
X224790000Y-125505000D01*
X243090000Y-125505000D02*
X243090000Y-88905000D01*
X228790000Y-113395000D02*
X228790000Y-121905000D01*
X228190000Y-112795000D02*
X224790000Y-112795000D01*
X228190000Y-112795000D02*
G75*
G02*
X228790000Y-113395000I0J-600000D01*
G01*
X224790000Y-96845000D02*
X224790000Y-112795000D01*
X224790000Y-92945000D02*
X224790000Y-95645000D01*
X228790000Y-92345000D02*
G75*
G02*
X228190000Y-92945000I-600000J0D01*
G01*
X224790000Y-92945000D02*
X228190000Y-92945000D01*
X227690000Y-95645000D02*
G75*
G02*
X227690000Y-96845000I0J-600000D01*
G01*
X227690000Y-95645000D02*
X224790000Y-95645000D01*
X224790000Y-96845000D02*
X227690000Y-96845000D01*
X228790000Y-88905000D02*
X228790000Y-92345000D01*
M02*
