%TF.GenerationSoftware,KiCad,Pcbnew,(5.1.8-0-10_14)*%
%TF.CreationDate,2020-11-22T12:38:21-07:00*%
%TF.ProjectId,Ellow,456c6c6f-772e-46b6-9963-61645f706362,rev?*%
%TF.SameCoordinates,Original*%
%TF.FileFunction,Legend,Top*%
%TF.FilePolarity,Positive*%
%FSLAX46Y46*%
G04 Gerber Fmt 4.6, Leading zero omitted, Abs format (unit mm)*
G04 Created by KiCad (PCBNEW (5.1.8-0-10_14)) date 2020-11-22 12:38:21*
%MOMM*%
%LPD*%
G01*
G04 APERTURE LIST*
%ADD10C,0.120000*%
%ADD11C,0.150000*%
%ADD12C,0.100000*%
G04 APERTURE END LIST*
D10*
%TO.C,J3*%
X228455000Y-125315000D02*
X228455000Y-124512530D01*
X228455000Y-123897470D02*
X228455000Y-123095000D01*
X227250000Y-125315000D02*
X228455000Y-125315000D01*
X227250000Y-123095000D02*
X228455000Y-123095000D01*
X227250000Y-125315000D02*
X227250000Y-124768471D01*
X227250000Y-123641529D02*
X227250000Y-123095000D01*
X226490000Y-125315000D02*
X225730000Y-125315000D01*
X225730000Y-125315000D02*
X225730000Y-124205000D01*
%TO.C,U3*%
X231090000Y-99805000D02*
X230290000Y-99805000D01*
X231090000Y-99805000D02*
X231890000Y-99805000D01*
X231090000Y-102925000D02*
X230290000Y-102925000D01*
X231090000Y-102925000D02*
X232890000Y-102925000D01*
%TO.C,Q2*%
X234068000Y-100565000D02*
X234998000Y-100565000D01*
X237228000Y-100565000D02*
X236298000Y-100565000D01*
X237228000Y-100565000D02*
X237228000Y-98405000D01*
X234068000Y-100565000D02*
X234068000Y-99105000D01*
%TO.C,Q1*%
X231650000Y-106585000D02*
X231650000Y-105655000D01*
X231650000Y-103425000D02*
X231650000Y-104355000D01*
X231650000Y-103425000D02*
X229490000Y-103425000D01*
X231650000Y-106585000D02*
X230190000Y-106585000D01*
%TO.C,D1*%
X229290000Y-106955000D02*
X229290000Y-108655000D01*
X229290000Y-108655000D02*
X231840000Y-108655000D01*
X229290000Y-106955000D02*
X231840000Y-106955000D01*
%TO.C,C2*%
X234442580Y-104423000D02*
X234161420Y-104423000D01*
X234442580Y-103403000D02*
X234161420Y-103403000D01*
%TO.C,C1*%
X237300000Y-104564420D02*
X237300000Y-104845580D01*
X236280000Y-104564420D02*
X236280000Y-104845580D01*
%TO.C,R9*%
X230328500Y-93386776D02*
X230328500Y-93896224D01*
X229283500Y-93386776D02*
X229283500Y-93896224D01*
%TO.C,D3*%
X229071000Y-89389000D02*
X229071000Y-91674000D01*
X229071000Y-91674000D02*
X230541000Y-91674000D01*
X230541000Y-91674000D02*
X230541000Y-89389000D01*
%TO.C,Y1*%
X239890000Y-107405000D02*
X237040000Y-107405000D01*
X237040000Y-107405000D02*
X237040000Y-109005000D01*
X237040000Y-109005000D02*
X239890000Y-109005000D01*
%TO.C,D2*%
X241263000Y-89414500D02*
X241263000Y-91699500D01*
X241263000Y-91699500D02*
X242733000Y-91699500D01*
X242733000Y-91699500D02*
X242733000Y-89414500D01*
%TO.C,R7*%
X234657224Y-107727500D02*
X234147776Y-107727500D01*
X234657224Y-106682500D02*
X234147776Y-106682500D01*
%TO.C,R6*%
X242520500Y-93490276D02*
X242520500Y-93999724D01*
X241475500Y-93490276D02*
X241475500Y-93999724D01*
%TO.C,R5*%
X234735276Y-101782500D02*
X235244724Y-101782500D01*
X234735276Y-102827500D02*
X235244724Y-102827500D01*
%TO.C,R4*%
X234620724Y-106086500D02*
X234111276Y-106086500D01*
X234620724Y-105041500D02*
X234111276Y-105041500D01*
%TO.C,R3*%
X232450224Y-99347500D02*
X231940776Y-99347500D01*
X232450224Y-98302500D02*
X231940776Y-98302500D01*
%TO.C,R2*%
X239052776Y-98302500D02*
X239562224Y-98302500D01*
X239052776Y-99347500D02*
X239562224Y-99347500D01*
%TO.C,R1*%
X241475500Y-97452224D02*
X241475500Y-96942776D01*
X242520500Y-97452224D02*
X242520500Y-96942776D01*
%TO.C,U1*%
X240764000Y-101809000D02*
X240764000Y-101009000D01*
X240764000Y-101809000D02*
X240764000Y-102609000D01*
X237644000Y-101809000D02*
X237644000Y-101009000D01*
X237644000Y-101809000D02*
X237644000Y-103609000D01*
%TO.C,R8*%
X242520500Y-100348276D02*
X242520500Y-100857724D01*
X241475500Y-100348276D02*
X241475500Y-100857724D01*
%TO.C,J1*%
X240602000Y-88829000D02*
X231202000Y-88829000D01*
X231202000Y-94629000D02*
X231202000Y-92629000D01*
X231202000Y-90729000D02*
X231202000Y-88829000D01*
X240602000Y-94629000D02*
X240602000Y-92629000D01*
X240602000Y-90729000D02*
X240602000Y-88829000D01*
%TO.C,J3*%
D11*
X224247380Y-124538333D02*
X224961666Y-124538333D01*
X225104523Y-124585952D01*
X225199761Y-124681190D01*
X225247380Y-124824047D01*
X225247380Y-124919285D01*
X224247380Y-124157380D02*
X224247380Y-123538333D01*
X224628333Y-123871666D01*
X224628333Y-123728809D01*
X224675952Y-123633571D01*
X224723571Y-123585952D01*
X224818809Y-123538333D01*
X225056904Y-123538333D01*
X225152142Y-123585952D01*
X225199761Y-123633571D01*
X225247380Y-123728809D01*
X225247380Y-124014523D01*
X225199761Y-124109761D01*
X225152142Y-124157380D01*
%TO.C,U3*%
X230328095Y-103217380D02*
X230328095Y-104026904D01*
X230375714Y-104122142D01*
X230423333Y-104169761D01*
X230518571Y-104217380D01*
X230709047Y-104217380D01*
X230804285Y-104169761D01*
X230851904Y-104122142D01*
X230899523Y-104026904D01*
X230899523Y-103217380D01*
X231280476Y-103217380D02*
X231899523Y-103217380D01*
X231566190Y-103598333D01*
X231709047Y-103598333D01*
X231804285Y-103645952D01*
X231851904Y-103693571D01*
X231899523Y-103788809D01*
X231899523Y-104026904D01*
X231851904Y-104122142D01*
X231804285Y-104169761D01*
X231709047Y-104217380D01*
X231423333Y-104217380D01*
X231328095Y-104169761D01*
X231280476Y-104122142D01*
%TO.C,Q2*%
X238695619Y-99900238D02*
X238648000Y-99995476D01*
X238552761Y-100090714D01*
X238409904Y-100233571D01*
X238362285Y-100328809D01*
X238362285Y-100424047D01*
X238600380Y-100376428D02*
X238552761Y-100471666D01*
X238457523Y-100566904D01*
X238267047Y-100614523D01*
X237933714Y-100614523D01*
X237743238Y-100566904D01*
X237648000Y-100471666D01*
X237600380Y-100376428D01*
X237600380Y-100185952D01*
X237648000Y-100090714D01*
X237743238Y-99995476D01*
X237933714Y-99947857D01*
X238267047Y-99947857D01*
X238457523Y-99995476D01*
X238552761Y-100090714D01*
X238600380Y-100185952D01*
X238600380Y-100376428D01*
X237695619Y-99566904D02*
X237648000Y-99519285D01*
X237600380Y-99424047D01*
X237600380Y-99185952D01*
X237648000Y-99090714D01*
X237695619Y-99043095D01*
X237790857Y-98995476D01*
X237886095Y-98995476D01*
X238028952Y-99043095D01*
X238600380Y-99614523D01*
X238600380Y-98995476D01*
%TO.C,Q1*%
X230794761Y-103052619D02*
X230699523Y-103005000D01*
X230604285Y-102909761D01*
X230461428Y-102766904D01*
X230366190Y-102719285D01*
X230270952Y-102719285D01*
X230318571Y-102957380D02*
X230223333Y-102909761D01*
X230128095Y-102814523D01*
X230080476Y-102624047D01*
X230080476Y-102290714D01*
X230128095Y-102100238D01*
X230223333Y-102005000D01*
X230318571Y-101957380D01*
X230509047Y-101957380D01*
X230604285Y-102005000D01*
X230699523Y-102100238D01*
X230747142Y-102290714D01*
X230747142Y-102624047D01*
X230699523Y-102814523D01*
X230604285Y-102909761D01*
X230509047Y-102957380D01*
X230318571Y-102957380D01*
X231699523Y-102957380D02*
X231128095Y-102957380D01*
X231413809Y-102957380D02*
X231413809Y-101957380D01*
X231318571Y-102100238D01*
X231223333Y-102195476D01*
X231128095Y-102243095D01*
%TO.C,D1*%
X230051904Y-106407380D02*
X230051904Y-105407380D01*
X230290000Y-105407380D01*
X230432857Y-105455000D01*
X230528095Y-105550238D01*
X230575714Y-105645476D01*
X230623333Y-105835952D01*
X230623333Y-105978809D01*
X230575714Y-106169285D01*
X230528095Y-106264523D01*
X230432857Y-106359761D01*
X230290000Y-106407380D01*
X230051904Y-106407380D01*
X231575714Y-106407380D02*
X231004285Y-106407380D01*
X231290000Y-106407380D02*
X231290000Y-105407380D01*
X231194761Y-105550238D01*
X231099523Y-105645476D01*
X231004285Y-105693095D01*
%TO.C,C2*%
X234135333Y-105700142D02*
X234087714Y-105747761D01*
X233944857Y-105795380D01*
X233849619Y-105795380D01*
X233706761Y-105747761D01*
X233611523Y-105652523D01*
X233563904Y-105557285D01*
X233516285Y-105366809D01*
X233516285Y-105223952D01*
X233563904Y-105033476D01*
X233611523Y-104938238D01*
X233706761Y-104843000D01*
X233849619Y-104795380D01*
X233944857Y-104795380D01*
X234087714Y-104843000D01*
X234135333Y-104890619D01*
X234516285Y-104890619D02*
X234563904Y-104843000D01*
X234659142Y-104795380D01*
X234897238Y-104795380D01*
X234992476Y-104843000D01*
X235040095Y-104890619D01*
X235087714Y-104985857D01*
X235087714Y-105081095D01*
X235040095Y-105223952D01*
X234468666Y-105795380D01*
X235087714Y-105795380D01*
%TO.C,C1*%
X238577142Y-104871666D02*
X238624761Y-104919285D01*
X238672380Y-105062142D01*
X238672380Y-105157380D01*
X238624761Y-105300238D01*
X238529523Y-105395476D01*
X238434285Y-105443095D01*
X238243809Y-105490714D01*
X238100952Y-105490714D01*
X237910476Y-105443095D01*
X237815238Y-105395476D01*
X237720000Y-105300238D01*
X237672380Y-105157380D01*
X237672380Y-105062142D01*
X237720000Y-104919285D01*
X237767619Y-104871666D01*
X238672380Y-103919285D02*
X238672380Y-104490714D01*
X238672380Y-104205000D02*
X237672380Y-104205000D01*
X237815238Y-104300238D01*
X237910476Y-104395476D01*
X237958095Y-104490714D01*
%TO.C,H1*%
X242328095Y-103657380D02*
X242328095Y-102657380D01*
X242328095Y-103133571D02*
X242899523Y-103133571D01*
X242899523Y-103657380D02*
X242899523Y-102657380D01*
X243899523Y-103657380D02*
X243328095Y-103657380D01*
X243613809Y-103657380D02*
X243613809Y-102657380D01*
X243518571Y-102800238D01*
X243423333Y-102895476D01*
X243328095Y-102943095D01*
%TO.C,R9*%
X231742380Y-93808166D02*
X231266190Y-94141500D01*
X231742380Y-94379595D02*
X230742380Y-94379595D01*
X230742380Y-93998642D01*
X230790000Y-93903404D01*
X230837619Y-93855785D01*
X230932857Y-93808166D01*
X231075714Y-93808166D01*
X231170952Y-93855785D01*
X231218571Y-93903404D01*
X231266190Y-93998642D01*
X231266190Y-94379595D01*
X231742380Y-93331976D02*
X231742380Y-93141500D01*
X231694761Y-93046261D01*
X231647142Y-92998642D01*
X231504285Y-92903404D01*
X231313809Y-92855785D01*
X230932857Y-92855785D01*
X230837619Y-92903404D01*
X230790000Y-92951023D01*
X230742380Y-93046261D01*
X230742380Y-93236738D01*
X230790000Y-93331976D01*
X230837619Y-93379595D01*
X230932857Y-93427214D01*
X231170952Y-93427214D01*
X231266190Y-93379595D01*
X231313809Y-93331976D01*
X231361428Y-93236738D01*
X231361428Y-93046261D01*
X231313809Y-92951023D01*
X231266190Y-92903404D01*
X231170952Y-92855785D01*
%TO.C,D3*%
X231742380Y-90143095D02*
X230742380Y-90143095D01*
X230742380Y-89905000D01*
X230790000Y-89762142D01*
X230885238Y-89666904D01*
X230980476Y-89619285D01*
X231170952Y-89571666D01*
X231313809Y-89571666D01*
X231504285Y-89619285D01*
X231599523Y-89666904D01*
X231694761Y-89762142D01*
X231742380Y-89905000D01*
X231742380Y-90143095D01*
X230742380Y-89238333D02*
X230742380Y-88619285D01*
X231123333Y-88952619D01*
X231123333Y-88809761D01*
X231170952Y-88714523D01*
X231218571Y-88666904D01*
X231313809Y-88619285D01*
X231551904Y-88619285D01*
X231647142Y-88666904D01*
X231694761Y-88714523D01*
X231742380Y-88809761D01*
X231742380Y-89095476D01*
X231694761Y-89190714D01*
X231647142Y-89238333D01*
%TO.C,Y1*%
X240924690Y-108617690D02*
X241400880Y-108617690D01*
X240400880Y-108951023D02*
X240924690Y-108617690D01*
X240400880Y-108284357D01*
X241400880Y-107427214D02*
X241400880Y-107998642D01*
X241400880Y-107712928D02*
X240400880Y-107712928D01*
X240543738Y-107808166D01*
X240638976Y-107903404D01*
X240686595Y-107998642D01*
%TO.C,J2*%
X223192380Y-95447333D02*
X223906666Y-95447333D01*
X224049523Y-95494952D01*
X224144761Y-95590190D01*
X224192380Y-95733047D01*
X224192380Y-95828285D01*
X223287619Y-95018761D02*
X223240000Y-94971142D01*
X223192380Y-94875904D01*
X223192380Y-94637809D01*
X223240000Y-94542571D01*
X223287619Y-94494952D01*
X223382857Y-94447333D01*
X223478095Y-94447333D01*
X223620952Y-94494952D01*
X224192380Y-95066380D01*
X224192380Y-94447333D01*
%TO.C,D2*%
X241242380Y-90643095D02*
X240242380Y-90643095D01*
X240242380Y-90405000D01*
X240290000Y-90262142D01*
X240385238Y-90166904D01*
X240480476Y-90119285D01*
X240670952Y-90071666D01*
X240813809Y-90071666D01*
X241004285Y-90119285D01*
X241099523Y-90166904D01*
X241194761Y-90262142D01*
X241242380Y-90405000D01*
X241242380Y-90643095D01*
X240337619Y-89690714D02*
X240290000Y-89643095D01*
X240242380Y-89547857D01*
X240242380Y-89309761D01*
X240290000Y-89214523D01*
X240337619Y-89166904D01*
X240432857Y-89119285D01*
X240528095Y-89119285D01*
X240670952Y-89166904D01*
X241242380Y-89738333D01*
X241242380Y-89119285D01*
%TO.C,R7*%
X232568880Y-107371666D02*
X232092690Y-107705000D01*
X232568880Y-107943095D02*
X231568880Y-107943095D01*
X231568880Y-107562142D01*
X231616500Y-107466904D01*
X231664119Y-107419285D01*
X231759357Y-107371666D01*
X231902214Y-107371666D01*
X231997452Y-107419285D01*
X232045071Y-107466904D01*
X232092690Y-107562142D01*
X232092690Y-107943095D01*
X231568880Y-107038333D02*
X231568880Y-106371666D01*
X232568880Y-106800238D01*
%TO.C,R6*%
X241242380Y-93571666D02*
X240766190Y-93905000D01*
X241242380Y-94143095D02*
X240242380Y-94143095D01*
X240242380Y-93762142D01*
X240290000Y-93666904D01*
X240337619Y-93619285D01*
X240432857Y-93571666D01*
X240575714Y-93571666D01*
X240670952Y-93619285D01*
X240718571Y-93666904D01*
X240766190Y-93762142D01*
X240766190Y-94143095D01*
X240242380Y-92714523D02*
X240242380Y-92905000D01*
X240290000Y-93000238D01*
X240337619Y-93047857D01*
X240480476Y-93143095D01*
X240670952Y-93190714D01*
X241051904Y-93190714D01*
X241147142Y-93143095D01*
X241194761Y-93095476D01*
X241242380Y-93000238D01*
X241242380Y-92809761D01*
X241194761Y-92714523D01*
X241147142Y-92666904D01*
X241051904Y-92619285D01*
X240813809Y-92619285D01*
X240718571Y-92666904D01*
X240670952Y-92714523D01*
X240623333Y-92809761D01*
X240623333Y-93000238D01*
X240670952Y-93095476D01*
X240718571Y-93143095D01*
X240813809Y-93190714D01*
%TO.C,R5*%
X237728380Y-102471666D02*
X237252190Y-102805000D01*
X237728380Y-103043095D02*
X236728380Y-103043095D01*
X236728380Y-102662142D01*
X236776000Y-102566904D01*
X236823619Y-102519285D01*
X236918857Y-102471666D01*
X237061714Y-102471666D01*
X237156952Y-102519285D01*
X237204571Y-102566904D01*
X237252190Y-102662142D01*
X237252190Y-103043095D01*
X236728380Y-101566904D02*
X236728380Y-102043095D01*
X237204571Y-102090714D01*
X237156952Y-102043095D01*
X237109333Y-101947857D01*
X237109333Y-101709761D01*
X237156952Y-101614523D01*
X237204571Y-101566904D01*
X237299809Y-101519285D01*
X237537904Y-101519285D01*
X237633142Y-101566904D01*
X237680761Y-101614523D01*
X237728380Y-101709761D01*
X237728380Y-101947857D01*
X237680761Y-102043095D01*
X237633142Y-102090714D01*
%TO.C,R4*%
X232532380Y-105603666D02*
X232056190Y-105937000D01*
X232532380Y-106175095D02*
X231532380Y-106175095D01*
X231532380Y-105794142D01*
X231580000Y-105698904D01*
X231627619Y-105651285D01*
X231722857Y-105603666D01*
X231865714Y-105603666D01*
X231960952Y-105651285D01*
X232008571Y-105698904D01*
X232056190Y-105794142D01*
X232056190Y-106175095D01*
X231865714Y-104746523D02*
X232532380Y-104746523D01*
X231484761Y-104984619D02*
X232199047Y-105222714D01*
X232199047Y-104603666D01*
%TO.C,R3*%
X230361880Y-98991666D02*
X229885690Y-99325000D01*
X230361880Y-99563095D02*
X229361880Y-99563095D01*
X229361880Y-99182142D01*
X229409500Y-99086904D01*
X229457119Y-99039285D01*
X229552357Y-98991666D01*
X229695214Y-98991666D01*
X229790452Y-99039285D01*
X229838071Y-99086904D01*
X229885690Y-99182142D01*
X229885690Y-99563095D01*
X229361880Y-98658333D02*
X229361880Y-98039285D01*
X229742833Y-98372619D01*
X229742833Y-98229761D01*
X229790452Y-98134523D01*
X229838071Y-98086904D01*
X229933309Y-98039285D01*
X230171404Y-98039285D01*
X230266642Y-98086904D01*
X230314261Y-98134523D01*
X230361880Y-98229761D01*
X230361880Y-98515476D01*
X230314261Y-98610714D01*
X230266642Y-98658333D01*
%TO.C,R2*%
X237473880Y-98991666D02*
X236997690Y-99325000D01*
X237473880Y-99563095D02*
X236473880Y-99563095D01*
X236473880Y-99182142D01*
X236521500Y-99086904D01*
X236569119Y-99039285D01*
X236664357Y-98991666D01*
X236807214Y-98991666D01*
X236902452Y-99039285D01*
X236950071Y-99086904D01*
X236997690Y-99182142D01*
X236997690Y-99563095D01*
X236569119Y-98610714D02*
X236521500Y-98563095D01*
X236473880Y-98467857D01*
X236473880Y-98229761D01*
X236521500Y-98134523D01*
X236569119Y-98086904D01*
X236664357Y-98039285D01*
X236759595Y-98039285D01*
X236902452Y-98086904D01*
X237473880Y-98658333D01*
X237473880Y-98039285D01*
%TO.C,R1*%
D12*
X241006666Y-97431190D02*
X240840000Y-97193095D01*
X240720952Y-97431190D02*
X240720952Y-96931190D01*
X240911428Y-96931190D01*
X240959047Y-96955000D01*
X240982857Y-96978809D01*
X241006666Y-97026428D01*
X241006666Y-97097857D01*
X240982857Y-97145476D01*
X240959047Y-97169285D01*
X240911428Y-97193095D01*
X240720952Y-97193095D01*
X241482857Y-97431190D02*
X241197142Y-97431190D01*
X241340000Y-97431190D02*
X241340000Y-96931190D01*
X241292380Y-97002619D01*
X241244761Y-97050238D01*
X241197142Y-97074047D01*
%TO.C,U1*%
D11*
X236256380Y-102570904D02*
X237065904Y-102570904D01*
X237161142Y-102523285D01*
X237208761Y-102475666D01*
X237256380Y-102380428D01*
X237256380Y-102189952D01*
X237208761Y-102094714D01*
X237161142Y-102047095D01*
X237065904Y-101999476D01*
X236256380Y-101999476D01*
X237256380Y-100999476D02*
X237256380Y-101570904D01*
X237256380Y-101285190D02*
X236256380Y-101285190D01*
X236399238Y-101380428D01*
X236494476Y-101475666D01*
X236542095Y-101570904D01*
%TO.C,R8*%
D12*
X241806666Y-100831190D02*
X241640000Y-100593095D01*
X241520952Y-100831190D02*
X241520952Y-100331190D01*
X241711428Y-100331190D01*
X241759047Y-100355000D01*
X241782857Y-100378809D01*
X241806666Y-100426428D01*
X241806666Y-100497857D01*
X241782857Y-100545476D01*
X241759047Y-100569285D01*
X241711428Y-100593095D01*
X241520952Y-100593095D01*
X242092380Y-100545476D02*
X242044761Y-100521666D01*
X242020952Y-100497857D01*
X241997142Y-100450238D01*
X241997142Y-100426428D01*
X242020952Y-100378809D01*
X242044761Y-100355000D01*
X242092380Y-100331190D01*
X242187619Y-100331190D01*
X242235238Y-100355000D01*
X242259047Y-100378809D01*
X242282857Y-100426428D01*
X242282857Y-100450238D01*
X242259047Y-100497857D01*
X242235238Y-100521666D01*
X242187619Y-100545476D01*
X242092380Y-100545476D01*
X242044761Y-100569285D01*
X242020952Y-100593095D01*
X241997142Y-100640714D01*
X241997142Y-100735952D01*
X242020952Y-100783571D01*
X242044761Y-100807380D01*
X242092380Y-100831190D01*
X242187619Y-100831190D01*
X242235238Y-100807380D01*
X242259047Y-100783571D01*
X242282857Y-100735952D01*
X242282857Y-100640714D01*
X242259047Y-100593095D01*
X242235238Y-100569285D01*
X242187619Y-100545476D01*
%TO.C,U2*%
D11*
X235394562Y-116946155D02*
X235394562Y-117755679D01*
X235442181Y-117850917D01*
X235489800Y-117898536D01*
X235585038Y-117946155D01*
X235775514Y-117946155D01*
X235870752Y-117898536D01*
X235918371Y-117850917D01*
X235965990Y-117755679D01*
X235965990Y-116946155D01*
X236394562Y-117041394D02*
X236442181Y-116993775D01*
X236537419Y-116946155D01*
X236775514Y-116946155D01*
X236870752Y-116993775D01*
X236918371Y-117041394D01*
X236965990Y-117136632D01*
X236965990Y-117231870D01*
X236918371Y-117374727D01*
X236346943Y-117946155D01*
X236965990Y-117946155D01*
X230375714Y-125133571D02*
X230709047Y-125133571D01*
X230851904Y-125657380D02*
X230375714Y-125657380D01*
X230375714Y-124657380D01*
X230851904Y-124657380D01*
X231185238Y-124657380D02*
X231851904Y-124657380D01*
X231423333Y-125657380D01*
X232137619Y-124657380D02*
X232756666Y-124657380D01*
X232423333Y-125038333D01*
X232566190Y-125038333D01*
X232661428Y-125085952D01*
X232709047Y-125133571D01*
X232756666Y-125228809D01*
X232756666Y-125466904D01*
X232709047Y-125562142D01*
X232661428Y-125609761D01*
X232566190Y-125657380D01*
X232280476Y-125657380D01*
X232185238Y-125609761D01*
X232137619Y-125562142D01*
X233185238Y-125276428D02*
X233947142Y-125276428D01*
X234375714Y-124752619D02*
X234423333Y-124705000D01*
X234518571Y-124657380D01*
X234756666Y-124657380D01*
X234851904Y-124705000D01*
X234899523Y-124752619D01*
X234947142Y-124847857D01*
X234947142Y-124943095D01*
X234899523Y-125085952D01*
X234328095Y-125657380D01*
X234947142Y-125657380D01*
X235899523Y-124705000D02*
X235804285Y-124657380D01*
X235661428Y-124657380D01*
X235518571Y-124705000D01*
X235423333Y-124800238D01*
X235375714Y-124895476D01*
X235328095Y-125085952D01*
X235328095Y-125228809D01*
X235375714Y-125419285D01*
X235423333Y-125514523D01*
X235518571Y-125609761D01*
X235661428Y-125657380D01*
X235756666Y-125657380D01*
X235899523Y-125609761D01*
X235947142Y-125562142D01*
X235947142Y-125228809D01*
X235756666Y-125228809D01*
X236804285Y-124990714D02*
X236804285Y-125657380D01*
X236566190Y-124609761D02*
X236328095Y-125324047D01*
X236947142Y-125324047D01*
X237328095Y-125657380D02*
X237328095Y-124657380D01*
X237661428Y-125371666D01*
X237994761Y-124657380D01*
X237994761Y-125657380D01*
X238661428Y-124657380D02*
X238756666Y-124657380D01*
X238851904Y-124705000D01*
X238899523Y-124752619D01*
X238947142Y-124847857D01*
X238994761Y-125038333D01*
X238994761Y-125276428D01*
X238947142Y-125466904D01*
X238899523Y-125562142D01*
X238851904Y-125609761D01*
X238756666Y-125657380D01*
X238661428Y-125657380D01*
X238566190Y-125609761D01*
X238518571Y-125562142D01*
X238470952Y-125466904D01*
X238423333Y-125276428D01*
X238423333Y-125038333D01*
X238470952Y-124847857D01*
X238518571Y-124752619D01*
X238566190Y-124705000D01*
X238661428Y-124657380D01*
X239566190Y-125085952D02*
X239470952Y-125038333D01*
X239423333Y-124990714D01*
X239375714Y-124895476D01*
X239375714Y-124847857D01*
X239423333Y-124752619D01*
X239470952Y-124705000D01*
X239566190Y-124657380D01*
X239756666Y-124657380D01*
X239851904Y-124705000D01*
X239899523Y-124752619D01*
X239947142Y-124847857D01*
X239947142Y-124895476D01*
X239899523Y-124990714D01*
X239851904Y-125038333D01*
X239756666Y-125085952D01*
X239566190Y-125085952D01*
X239470952Y-125133571D01*
X239423333Y-125181190D01*
X239375714Y-125276428D01*
X239375714Y-125466904D01*
X239423333Y-125562142D01*
X239470952Y-125609761D01*
X239566190Y-125657380D01*
X239756666Y-125657380D01*
X239851904Y-125609761D01*
X239899523Y-125562142D01*
X239947142Y-125466904D01*
X239947142Y-125276428D01*
X239899523Y-125181190D01*
X239851904Y-125133571D01*
X239756666Y-125085952D01*
X240328095Y-125609761D02*
X240470952Y-125657380D01*
X240709047Y-125657380D01*
X240804285Y-125609761D01*
X240851904Y-125562142D01*
X240899523Y-125466904D01*
X240899523Y-125371666D01*
X240851904Y-125276428D01*
X240804285Y-125228809D01*
X240709047Y-125181190D01*
X240518571Y-125133571D01*
X240423333Y-125085952D01*
X240375714Y-125038333D01*
X240328095Y-124943095D01*
X240328095Y-124847857D01*
X240375714Y-124752619D01*
X240423333Y-124705000D01*
X240518571Y-124657380D01*
X240756666Y-124657380D01*
X240899523Y-124705000D01*
X241851904Y-125657380D02*
X241280476Y-125657380D01*
X241566190Y-125657380D02*
X241566190Y-124657380D01*
X241470952Y-124800238D01*
X241375714Y-124895476D01*
X241280476Y-124943095D01*
X242851904Y-125562142D02*
X242804285Y-125609761D01*
X242661428Y-125657380D01*
X242566190Y-125657380D01*
X242423333Y-125609761D01*
X242328095Y-125514523D01*
X242280476Y-125419285D01*
X242232857Y-125228809D01*
X242232857Y-125085952D01*
X242280476Y-124895476D01*
X242328095Y-124800238D01*
X242423333Y-124705000D01*
X242566190Y-124657380D01*
X242661428Y-124657380D01*
X242804285Y-124705000D01*
X242851904Y-124752619D01*
%TO.C,J1*%
X235568666Y-97826380D02*
X235568666Y-98540666D01*
X235521047Y-98683523D01*
X235425809Y-98778761D01*
X235282952Y-98826380D01*
X235187714Y-98826380D01*
X236568666Y-98826380D02*
X235997238Y-98826380D01*
X236282952Y-98826380D02*
X236282952Y-97826380D01*
X236187714Y-97969238D01*
X236092476Y-98064476D01*
X235997238Y-98112095D01*
%TD*%
M02*
