%TF.GenerationSoftware,KiCad,Pcbnew,(5.1.8-0-10_14)*%
%TF.CreationDate,2020-11-22T12:38:21-07:00*%
%TF.ProjectId,Ellow,456c6c6f-772e-46b6-9963-61645f706362,rev?*%
%TF.SameCoordinates,Original*%
%TF.FileFunction,Soldermask,Bot*%
%TF.FilePolarity,Negative*%
%FSLAX46Y46*%
G04 Gerber Fmt 4.6, Leading zero omitted, Abs format (unit mm)*
G04 Created by KiCad (PCBNEW (5.1.8-0-10_14)) date 2020-11-22 12:38:21*
%MOMM*%
%LPD*%
G01*
G04 APERTURE LIST*
%ADD10O,1.000000X1.000000*%
%ADD11R,1.000000X1.000000*%
%ADD12C,4.000000*%
%ADD13R,2.200000X0.330000*%
%ADD14R,1.000000X0.650000*%
%ADD15R,0.650000X1.000000*%
%ADD16O,1.000000X2.100000*%
%ADD17C,0.650000*%
%ADD18O,1.000000X1.600000*%
G04 APERTURE END LIST*
D10*
%TO.C,J3*%
X227760000Y-124205000D03*
D11*
X226490000Y-124205000D03*
%TD*%
D12*
%TO.C,H1*%
X243090000Y-107205000D03*
%TD*%
D13*
%TO.C,J2*%
X226531102Y-93643757D03*
X226531102Y-94143757D03*
X226531102Y-94643757D03*
X226531102Y-95143757D03*
X226531102Y-108143757D03*
X226531102Y-108643757D03*
X226531102Y-109143757D03*
X226531102Y-109643757D03*
X226531102Y-97643757D03*
X226531102Y-98143757D03*
X226531102Y-98643757D03*
X226531102Y-99143757D03*
X226531102Y-99643757D03*
X226531102Y-100143757D03*
X226531102Y-100643757D03*
X226531102Y-101143757D03*
X226531102Y-101643757D03*
X226531102Y-102143757D03*
X226531102Y-102643757D03*
X226531102Y-103143757D03*
X226531102Y-103643757D03*
X226531102Y-104143757D03*
X226531102Y-104643757D03*
X226531102Y-105143757D03*
X226531102Y-105643757D03*
X226531102Y-106143757D03*
X226531102Y-106643757D03*
X226531102Y-107143757D03*
X226531102Y-107643757D03*
X226531102Y-110143757D03*
X226531102Y-110643757D03*
X226531102Y-111143757D03*
X226531102Y-111643757D03*
X226531102Y-112143757D03*
%TD*%
D14*
%TO.C,U2*%
X232115000Y-114379000D03*
X232115000Y-115649000D03*
X232115000Y-116919000D03*
X232115000Y-118189000D03*
X232115000Y-119459000D03*
X232115000Y-120729000D03*
X232115000Y-121999000D03*
X232115000Y-123269000D03*
D15*
X238719000Y-111839000D03*
X239989000Y-111839000D03*
X234909000Y-111839000D03*
X237449000Y-111839000D03*
X233639000Y-111839000D03*
X232369000Y-111839000D03*
X236179000Y-111839000D03*
%TD*%
D16*
%TO.C,J1*%
X231582000Y-95859000D03*
X240222000Y-95859000D03*
D17*
X238792000Y-95329000D03*
D18*
X240222000Y-91679000D03*
D17*
X233012000Y-95329000D03*
D18*
X231582000Y-91679000D03*
%TD*%
M02*
