%TF.GenerationSoftware,KiCad,Pcbnew,(5.1.8-0-10_14)*%
%TF.CreationDate,2020-11-21T11:10:47-07:00*%
%TF.ProjectId,Ellow,456c6c6f-772e-46b6-9963-61645f706362,rev?*%
%TF.SameCoordinates,Original*%
%TF.FileFunction,Soldermask,Bot*%
%TF.FilePolarity,Negative*%
%FSLAX46Y46*%
G04 Gerber Fmt 4.6, Leading zero omitted, Abs format (unit mm)*
G04 Created by KiCad (PCBNEW (5.1.8-0-10_14)) date 2020-11-21 11:10:47*
%MOMM*%
%LPD*%
G01*
G04 APERTURE LIST*
%ADD10R,2.200000X0.330000*%
%ADD11O,1.700000X1.700000*%
%ADD12R,1.700000X1.700000*%
%ADD13R,1.000000X0.650000*%
%ADD14R,0.650000X1.000000*%
%ADD15O,1.000000X2.100000*%
%ADD16C,0.650000*%
%ADD17O,1.000000X1.600000*%
G04 APERTURE END LIST*
D10*
%TO.C,J2*%
X226531102Y-93643757D03*
X226531102Y-94143757D03*
X226531102Y-94643757D03*
X226531102Y-95143757D03*
X226531102Y-108143757D03*
X226531102Y-108643757D03*
X226531102Y-109143757D03*
X226531102Y-109643757D03*
X226531102Y-97643757D03*
X226531102Y-98143757D03*
X226531102Y-98643757D03*
X226531102Y-99143757D03*
X226531102Y-99643757D03*
X226531102Y-100143757D03*
X226531102Y-100643757D03*
X226531102Y-101143757D03*
X226531102Y-101643757D03*
X226531102Y-102143757D03*
X226531102Y-102643757D03*
X226531102Y-103143757D03*
X226531102Y-103643757D03*
X226531102Y-104143757D03*
X226531102Y-104643757D03*
X226531102Y-105143757D03*
X226531102Y-105643757D03*
X226531102Y-106143757D03*
X226531102Y-106643757D03*
X226531102Y-107143757D03*
X226531102Y-107643757D03*
X226531102Y-110143757D03*
X226531102Y-110643757D03*
X226531102Y-111143757D03*
X226531102Y-111643757D03*
X226531102Y-112143757D03*
%TD*%
D11*
%TO.C,Bat+ Bat-*%
X233680000Y-126003000D03*
D12*
X231140000Y-126003000D03*
%TD*%
D13*
%TO.C,U2*%
X241531000Y-112208000D03*
X241531000Y-110938000D03*
X241531000Y-109668000D03*
X241531000Y-108398000D03*
X241531000Y-107128000D03*
X241531000Y-105858000D03*
X241531000Y-104588000D03*
X241531000Y-103318000D03*
D14*
X234927000Y-114748000D03*
X233657000Y-114748000D03*
X238737000Y-114748000D03*
X236197000Y-114748000D03*
X240007000Y-114748000D03*
X241277000Y-114748000D03*
X237467000Y-114748000D03*
%TD*%
D15*
%TO.C,J1*%
X232979000Y-95986000D03*
X241619000Y-95986000D03*
D16*
X240189000Y-95456000D03*
D17*
X241619000Y-91806000D03*
D16*
X234409000Y-95456000D03*
D17*
X232979000Y-91806000D03*
%TD*%
M02*
