%TF.GenerationSoftware,KiCad,Pcbnew,(5.1.8-0-10_14)*%
%TF.CreationDate,2020-11-21T07:35:44-07:00*%
%TF.ProjectId,Ellow,456c6c6f-772e-46b6-9963-61645f706362,rev?*%
%TF.SameCoordinates,Original*%
%TF.FileFunction,Copper,L2,Bot*%
%TF.FilePolarity,Positive*%
%FSLAX46Y46*%
G04 Gerber Fmt 4.6, Leading zero omitted, Abs format (unit mm)*
G04 Created by KiCad (PCBNEW (5.1.8-0-10_14)) date 2020-11-21 07:35:44*
%MOMM*%
%LPD*%
G01*
G04 APERTURE LIST*
%TA.AperFunction,SMDPad,CuDef*%
%ADD10R,2.200000X0.330000*%
%TD*%
%TA.AperFunction,ComponentPad*%
%ADD11R,1.000000X0.650000*%
%TD*%
%TA.AperFunction,ComponentPad*%
%ADD12R,0.650000X1.000000*%
%TD*%
%TA.AperFunction,ComponentPad*%
%ADD13O,1.000000X2.100000*%
%TD*%
%TA.AperFunction,ComponentPad*%
%ADD14O,1.000000X1.600000*%
%TD*%
G04 APERTURE END LIST*
D10*
%TO.P,J4,1*%
%TO.N,Net-(J4-Pad1)*%
X226531102Y-93624757D03*
%TO.P,J4,3*%
%TO.N,Net-(J4-Pad3)*%
X226531102Y-94124757D03*
%TO.P,J4,5*%
%TO.N,Net-(J4-Pad5)*%
X226531102Y-94624757D03*
%TO.P,J4,7*%
%TO.N,Net-(J4-Pad1)*%
X226531102Y-95124757D03*
%TO.P,J4,9*%
%TO.N,N/C*%
X226531102Y-95624757D03*
%TO.P,J4,11*%
X226531102Y-96124757D03*
%TO.P,J4,13*%
X226531102Y-96624757D03*
%TO.P,J4,15*%
X226531102Y-97124757D03*
%TO.P,J4,17*%
%TO.N,Net-(J4-Pad17)*%
X226531102Y-97624757D03*
%TO.P,J4,19*%
%TO.N,Net-(J4-Pad19)*%
X226531102Y-98124757D03*
%TO.P,J4,21*%
%TO.N,Net-(J4-Pad21)*%
X226531102Y-98624757D03*
%TO.P,J4,23*%
%TO.N,Net-(J4-Pad1)*%
X226531102Y-99124757D03*
%TO.P,J4,25*%
%TO.N,Net-(J4-Pad25)*%
X226531102Y-99624757D03*
%TO.P,J4,27*%
%TO.N,Net-(J4-Pad27)*%
X226531102Y-100124757D03*
%TO.P,J4,29*%
%TO.N,Net-(J4-Pad1)*%
X226531102Y-100624757D03*
%TO.P,J4,31*%
%TO.N,Net-(J4-Pad31)*%
X226531102Y-101124757D03*
%TO.P,J4,33*%
%TO.N,Net-(J4-Pad1)*%
X226531102Y-101624757D03*
%TO.P,J4,35*%
%TO.N,Net-(J4-Pad35)*%
X226531102Y-102124757D03*
%TO.P,J4,37*%
%TO.N,Net-(J4-Pad37)*%
X226531102Y-102624757D03*
%TO.P,J4,39*%
%TO.N,Net-(J4-Pad1)*%
X226531102Y-103124757D03*
%TO.P,J4,41*%
%TO.N,Net-(J4-Pad41)*%
X226531102Y-103624757D03*
%TO.P,J4,43*%
%TO.N,Net-(J4-Pad43)*%
X226531102Y-104124757D03*
%TO.P,J4,45*%
%TO.N,Net-(J4-Pad1)*%
X226531102Y-104624757D03*
%TO.P,J4,47*%
%TO.N,Net-(J4-Pad47)*%
X226531102Y-105124757D03*
%TO.P,J4,49*%
%TO.N,Net-(J4-Pad49)*%
X226531102Y-105624757D03*
%TO.P,J4,51*%
%TO.N,Net-(J4-Pad1)*%
X226531102Y-106124757D03*
%TO.P,J4,53*%
%TO.N,Net-(J4-Pad53)*%
X226531102Y-106624757D03*
%TO.P,J4,55*%
%TO.N,Net-(J4-Pad55)*%
X226531102Y-107124757D03*
%TO.P,J4,57*%
%TO.N,Net-(J4-Pad1)*%
X226531102Y-107624757D03*
%TO.P,J4,67*%
%TO.N,Net-(J4-Pad67)*%
X226531102Y-110124757D03*
%TO.P,J4,69*%
%TO.N,Net-(J4-Pad1)*%
X226531102Y-110624757D03*
%TO.P,J4,71*%
%TO.N,Net-(J4-Pad71)*%
X226531102Y-111124757D03*
%TO.P,J4,73*%
%TO.N,Net-(J4-Pad73)*%
X226531102Y-111624757D03*
%TO.P,J4,75*%
%TO.N,Net-(J4-Pad1)*%
X226531102Y-112124757D03*
%TD*%
D11*
%TO.P,U2,28*%
%TO.N,Net-(U2-Pad28)*%
X241531000Y-112208000D03*
%TO.P,U2,30*%
%TO.N,Net-(U2-Pad30)*%
X241531000Y-110938000D03*
%TO.P,U2,32*%
%TO.N,Net-(U2-Pad32)*%
X241531000Y-109668000D03*
%TO.P,U2,34*%
%TO.N,Net-(U2-Pad34)*%
X241531000Y-108398000D03*
%TO.P,U2,36*%
%TO.N,Net-(U2-Pad36)*%
X241531000Y-107128000D03*
%TO.P,U2,38*%
%TO.N,Net-(U2-Pad38)*%
X241531000Y-105858000D03*
%TO.P,U2,40*%
%TO.N,Net-(U2-Pad40)*%
X241531000Y-104588000D03*
%TO.P,U2,42*%
%TO.N,Net-(U2-Pad42)*%
X241531000Y-103318000D03*
D12*
%TO.P,U2,14*%
%TO.N,Net-(U2-Pad14)*%
X234927000Y-114748000D03*
%TO.P,U2,12*%
%TO.N,Net-(U2-Pad12)*%
X233657000Y-114748000D03*
%TO.P,U2,20*%
%TO.N,Net-(U2-Pad20)*%
X238737000Y-114748000D03*
%TO.P,U2,16*%
%TO.N,Net-(U2-Pad16)*%
X236197000Y-114748000D03*
%TO.P,U2,22*%
%TO.N,Net-(U2-Pad22)*%
X240007000Y-114748000D03*
%TO.P,U2,24*%
%TO.N,GND*%
X241277000Y-114748000D03*
%TO.P,U2,18*%
%TO.N,BATTERY_MEASURE*%
X237467000Y-114748000D03*
%TD*%
D13*
%TO.P,J1,S1*%
%TO.N,GND*%
X233170000Y-95840000D03*
X241810000Y-95840000D03*
D14*
X241810000Y-91660000D03*
X233170000Y-91660000D03*
%TD*%
M02*
