%TF.GenerationSoftware,KiCad,Pcbnew,(5.1.8-0-10_14)*%
%TF.CreationDate,2020-11-21T07:35:44-07:00*%
%TF.ProjectId,Ellow,456c6c6f-772e-46b6-9963-61645f706362,rev?*%
%TF.SameCoordinates,Original*%
%TF.FileFunction,Legend,Top*%
%TF.FilePolarity,Positive*%
%FSLAX46Y46*%
G04 Gerber Fmt 4.6, Leading zero omitted, Abs format (unit mm)*
G04 Created by KiCad (PCBNEW (5.1.8-0-10_14)) date 2020-11-21 07:35:44*
%MOMM*%
%LPD*%
G01*
G04 APERTURE LIST*
%ADD10C,0.120000*%
%ADD11C,0.150000*%
G04 APERTURE END LIST*
D10*
%TO.C,J1*%
X242190000Y-90710000D02*
X242190000Y-88810000D01*
X242190000Y-94610000D02*
X242190000Y-92610000D01*
X232790000Y-90710000D02*
X232790000Y-88810000D01*
X232790000Y-94610000D02*
X232790000Y-92610000D01*
X242190000Y-88810000D02*
X232790000Y-88810000D01*
%TO.C,J4*%
D11*
X223192380Y-95428333D02*
X223906666Y-95428333D01*
X224049523Y-95475952D01*
X224144761Y-95571190D01*
X224192380Y-95714047D01*
X224192380Y-95809285D01*
X223525714Y-94523571D02*
X224192380Y-94523571D01*
X223144761Y-94761666D02*
X223859047Y-94999761D01*
X223859047Y-94380714D01*
%TO.C,U2*%
X236727628Y-108545605D02*
X236727628Y-109355129D01*
X236775247Y-109450367D01*
X236822866Y-109497986D01*
X236918104Y-109545605D01*
X237108580Y-109545605D01*
X237203818Y-109497986D01*
X237251437Y-109450367D01*
X237299056Y-109355129D01*
X237299056Y-108545605D01*
X237727628Y-108640844D02*
X237775247Y-108593225D01*
X237870485Y-108545605D01*
X238108580Y-108545605D01*
X238203818Y-108593225D01*
X238251437Y-108640844D01*
X238299056Y-108736082D01*
X238299056Y-108831320D01*
X238251437Y-108974177D01*
X237680009Y-109545605D01*
X238299056Y-109545605D01*
X231275714Y-100893571D02*
X231609047Y-100893571D01*
X231751904Y-101417380D02*
X231275714Y-101417380D01*
X231275714Y-100417380D01*
X231751904Y-100417380D01*
X232085238Y-100417380D02*
X232751904Y-100417380D01*
X232323333Y-101417380D01*
X233037619Y-100417380D02*
X233656666Y-100417380D01*
X233323333Y-100798333D01*
X233466190Y-100798333D01*
X233561428Y-100845952D01*
X233609047Y-100893571D01*
X233656666Y-100988809D01*
X233656666Y-101226904D01*
X233609047Y-101322142D01*
X233561428Y-101369761D01*
X233466190Y-101417380D01*
X233180476Y-101417380D01*
X233085238Y-101369761D01*
X233037619Y-101322142D01*
X234085238Y-101036428D02*
X234847142Y-101036428D01*
X235275714Y-100512619D02*
X235323333Y-100465000D01*
X235418571Y-100417380D01*
X235656666Y-100417380D01*
X235751904Y-100465000D01*
X235799523Y-100512619D01*
X235847142Y-100607857D01*
X235847142Y-100703095D01*
X235799523Y-100845952D01*
X235228095Y-101417380D01*
X235847142Y-101417380D01*
X236799523Y-100465000D02*
X236704285Y-100417380D01*
X236561428Y-100417380D01*
X236418571Y-100465000D01*
X236323333Y-100560238D01*
X236275714Y-100655476D01*
X236228095Y-100845952D01*
X236228095Y-100988809D01*
X236275714Y-101179285D01*
X236323333Y-101274523D01*
X236418571Y-101369761D01*
X236561428Y-101417380D01*
X236656666Y-101417380D01*
X236799523Y-101369761D01*
X236847142Y-101322142D01*
X236847142Y-100988809D01*
X236656666Y-100988809D01*
X237704285Y-100750714D02*
X237704285Y-101417380D01*
X237466190Y-100369761D02*
X237228095Y-101084047D01*
X237847142Y-101084047D01*
X238228095Y-101417380D02*
X238228095Y-100417380D01*
X238561428Y-101131666D01*
X238894761Y-100417380D01*
X238894761Y-101417380D01*
X239561428Y-100417380D02*
X239656666Y-100417380D01*
X239751904Y-100465000D01*
X239799523Y-100512619D01*
X239847142Y-100607857D01*
X239894761Y-100798333D01*
X239894761Y-101036428D01*
X239847142Y-101226904D01*
X239799523Y-101322142D01*
X239751904Y-101369761D01*
X239656666Y-101417380D01*
X239561428Y-101417380D01*
X239466190Y-101369761D01*
X239418571Y-101322142D01*
X239370952Y-101226904D01*
X239323333Y-101036428D01*
X239323333Y-100798333D01*
X239370952Y-100607857D01*
X239418571Y-100512619D01*
X239466190Y-100465000D01*
X239561428Y-100417380D01*
X240466190Y-100845952D02*
X240370952Y-100798333D01*
X240323333Y-100750714D01*
X240275714Y-100655476D01*
X240275714Y-100607857D01*
X240323333Y-100512619D01*
X240370952Y-100465000D01*
X240466190Y-100417380D01*
X240656666Y-100417380D01*
X240751904Y-100465000D01*
X240799523Y-100512619D01*
X240847142Y-100607857D01*
X240847142Y-100655476D01*
X240799523Y-100750714D01*
X240751904Y-100798333D01*
X240656666Y-100845952D01*
X240466190Y-100845952D01*
X240370952Y-100893571D01*
X240323333Y-100941190D01*
X240275714Y-101036428D01*
X240275714Y-101226904D01*
X240323333Y-101322142D01*
X240370952Y-101369761D01*
X240466190Y-101417380D01*
X240656666Y-101417380D01*
X240751904Y-101369761D01*
X240799523Y-101322142D01*
X240847142Y-101226904D01*
X240847142Y-101036428D01*
X240799523Y-100941190D01*
X240751904Y-100893571D01*
X240656666Y-100845952D01*
X241228095Y-101369761D02*
X241370952Y-101417380D01*
X241609047Y-101417380D01*
X241704285Y-101369761D01*
X241751904Y-101322142D01*
X241799523Y-101226904D01*
X241799523Y-101131666D01*
X241751904Y-101036428D01*
X241704285Y-100988809D01*
X241609047Y-100941190D01*
X241418571Y-100893571D01*
X241323333Y-100845952D01*
X241275714Y-100798333D01*
X241228095Y-100703095D01*
X241228095Y-100607857D01*
X241275714Y-100512619D01*
X241323333Y-100465000D01*
X241418571Y-100417380D01*
X241656666Y-100417380D01*
X241799523Y-100465000D01*
X242751904Y-101417380D02*
X242180476Y-101417380D01*
X242466190Y-101417380D02*
X242466190Y-100417380D01*
X242370952Y-100560238D01*
X242275714Y-100655476D01*
X242180476Y-100703095D01*
X243751904Y-101322142D02*
X243704285Y-101369761D01*
X243561428Y-101417380D01*
X243466190Y-101417380D01*
X243323333Y-101369761D01*
X243228095Y-101274523D01*
X243180476Y-101179285D01*
X243132857Y-100988809D01*
X243132857Y-100845952D01*
X243180476Y-100655476D01*
X243228095Y-100560238D01*
X243323333Y-100465000D01*
X243466190Y-100417380D01*
X243561428Y-100417380D01*
X243704285Y-100465000D01*
X243751904Y-100512619D01*
%TO.C,J1*%
X237156666Y-97807380D02*
X237156666Y-98521666D01*
X237109047Y-98664523D01*
X237013809Y-98759761D01*
X236870952Y-98807380D01*
X236775714Y-98807380D01*
X238156666Y-98807380D02*
X237585238Y-98807380D01*
X237870952Y-98807380D02*
X237870952Y-97807380D01*
X237775714Y-97950238D01*
X237680476Y-98045476D01*
X237585238Y-98093095D01*
%TD*%
M02*
