%TF.GenerationSoftware,KiCad,Pcbnew,(5.1.8-0-10_14)*%
%TF.CreationDate,2020-11-21T07:35:44-07:00*%
%TF.ProjectId,Ellow,456c6c6f-772e-46b6-9963-61645f706362,rev?*%
%TF.SameCoordinates,Original*%
%TF.FileFunction,Copper,L1,Top*%
%TF.FilePolarity,Positive*%
%FSLAX46Y46*%
G04 Gerber Fmt 4.6, Leading zero omitted, Abs format (unit mm)*
G04 Created by KiCad (PCBNEW (5.1.8-0-10_14)) date 2020-11-21 07:35:44*
%MOMM*%
%LPD*%
G01*
G04 APERTURE LIST*
%TA.AperFunction,SMDPad,CuDef*%
%ADD10R,3.000000X0.330000*%
%TD*%
%TA.AperFunction,ComponentPad*%
%ADD11R,1.000000X0.650000*%
%TD*%
%TA.AperFunction,SMDPad,CuDef*%
%ADD12R,1.000000X0.650000*%
%TD*%
%TA.AperFunction,SMDPad,CuDef*%
%ADD13R,0.650000X1.000000*%
%TD*%
%TA.AperFunction,ComponentPad*%
%ADD14R,0.650000X1.000000*%
%TD*%
%TA.AperFunction,SMDPad,CuDef*%
%ADD15R,0.600000X1.450000*%
%TD*%
%TA.AperFunction,SMDPad,CuDef*%
%ADD16R,0.300000X1.450000*%
%TD*%
%TA.AperFunction,ComponentPad*%
%ADD17O,1.000000X2.100000*%
%TD*%
%TA.AperFunction,ComponentPad*%
%ADD18O,1.000000X1.600000*%
%TD*%
G04 APERTURE END LIST*
D10*
%TO.P,J4,2*%
%TO.N,Net-(J4-Pad2)*%
X226531102Y-93874757D03*
%TO.P,J4,4*%
X226531102Y-94374757D03*
%TO.P,J4,6*%
%TO.N,Net-(J4-Pad6)*%
X226531102Y-94874757D03*
%TO.P,J4,8*%
%TO.N,N/C*%
X226531102Y-95374757D03*
%TO.P,J4,10*%
X226531102Y-95874757D03*
%TO.P,J4,12*%
X226531102Y-96374757D03*
%TO.P,J4,14*%
X226531102Y-96874757D03*
%TO.P,J4,16*%
%TO.N,Net-(J4-Pad16)*%
X226531102Y-97374757D03*
%TO.P,J4,18*%
%TO.N,Net-(J4-Pad1)*%
X226531102Y-97874757D03*
%TO.P,J4,20*%
%TO.N,Net-(J4-Pad20)*%
X226531102Y-98374757D03*
%TO.P,J4,22*%
%TO.N,Net-(J4-Pad22)*%
X226531102Y-98874757D03*
%TO.P,J4,24*%
%TO.N,Net-(J4-Pad1)*%
X226531102Y-99374757D03*
%TO.P,J4,26*%
%TO.N,Net-(J4-Pad26)*%
X226531102Y-99874757D03*
%TO.P,J4,28*%
%TO.N,Net-(J4-Pad28)*%
X226531102Y-100374757D03*
%TO.P,J4,30*%
%TO.N,Net-(J4-Pad1)*%
X226531102Y-100874757D03*
%TO.P,J4,32*%
%TO.N,Net-(J4-Pad32)*%
X226531102Y-101374757D03*
%TO.P,J4,34*%
%TO.N,Net-(J4-Pad34)*%
X226531102Y-101874757D03*
%TO.P,J4,36*%
%TO.N,Net-(J4-Pad1)*%
X226531102Y-102374757D03*
%TO.P,J4,38*%
%TO.N,Net-(J4-Pad38)*%
X226531102Y-102874757D03*
%TO.P,J4,40*%
%TO.N,Net-(J4-Pad40)*%
X226531102Y-103374757D03*
%TO.P,J4,42*%
%TO.N,Net-(J4-Pad42)*%
X226531102Y-103874757D03*
%TO.P,J4,44*%
%TO.N,Net-(J4-Pad44)*%
X226531102Y-104374757D03*
%TO.P,J4,46*%
%TO.N,Net-(J4-Pad46)*%
X226531102Y-104874757D03*
%TO.P,J4,48*%
%TO.N,Net-(J4-Pad48)*%
X226531102Y-105374757D03*
%TO.P,J4,50*%
%TO.N,Net-(J4-Pad50)*%
X226531102Y-105874757D03*
%TO.P,J4,52*%
%TO.N,Net-(J4-Pad52)*%
X226531102Y-106374757D03*
%TO.P,J4,54*%
%TO.N,Net-(J4-Pad54)*%
X226531102Y-106874757D03*
%TO.P,J4,56*%
%TO.N,Net-(J4-Pad56)*%
X226531102Y-107374757D03*
%TO.P,J4,58*%
%TO.N,Net-(J4-Pad58)*%
X226531102Y-107874757D03*
%TO.P,J4,68*%
%TO.N,Net-(J4-Pad68)*%
X226531102Y-110374757D03*
%TO.P,J4,70*%
%TO.N,Net-(J4-Pad70)*%
X226531102Y-110874757D03*
%TO.P,J4,72*%
%TO.N,Net-(J4-Pad2)*%
X226531102Y-111374757D03*
%TO.P,J4,74*%
X226531102Y-111874757D03*
%TD*%
D11*
%TO.P,U2,28*%
%TO.N,Net-(U2-Pad28)*%
X241531000Y-112208000D03*
D12*
%TO.P,U2,10*%
%TO.N,Net-(U2-Pad10)*%
X231371000Y-114240000D03*
%TO.P,U2,9*%
%TO.N,Net-(U2-Pad9)*%
X231371000Y-112970000D03*
%TO.P,U2,8*%
%TO.N,Net-(U2-Pad8)*%
X231371000Y-111700000D03*
%TO.P,U2,7*%
%TO.N,Net-(U2-Pad7)*%
X231371000Y-110430000D03*
%TO.P,U2,6*%
%TO.N,Net-(U2-Pad6)*%
X231371000Y-109160000D03*
%TO.P,U2,5*%
%TO.N,GND*%
X231371000Y-107890000D03*
%TO.P,U2,4*%
%TO.N,Net-(U2-Pad4)*%
X231371000Y-106620000D03*
%TO.P,U2,3*%
%TO.N,Net-(U2-Pad3)*%
X231371000Y-105350000D03*
%TO.P,U2,2*%
%TO.N,Net-(U2-Pad2)*%
X231371000Y-104080000D03*
%TO.P,U2,1*%
%TO.N,Net-(U2-Pad1)*%
X231371000Y-102810000D03*
%TO.P,U2,31*%
%TO.N,DATA+*%
X243609000Y-110430000D03*
%TO.P,U2,43*%
%TO.N,Net-(U2-Pad43)*%
X243609000Y-102810000D03*
%TO.P,U2,33*%
%TO.N,Net-(U2-Pad33)*%
X243609000Y-109160000D03*
%TO.P,U2,41*%
%TO.N,Net-(U2-Pad41)*%
X243609000Y-104080000D03*
%TO.P,U2,39*%
%TO.N,SWC*%
X243609000Y-105350000D03*
%TO.P,U2,37*%
%TO.N,SWD*%
X243609000Y-106620000D03*
%TO.P,U2,29*%
%TO.N,DATA-*%
X243609000Y-111700000D03*
%TO.P,U2,35*%
%TO.N,Net-(U2-Pad35)*%
X243609000Y-107890000D03*
%TO.P,U2,27*%
%TO.N,VBUS*%
X243609000Y-112970000D03*
%TO.P,U2,26*%
%TO.N,RESET*%
X243609000Y-114240000D03*
D13*
%TO.P,U2,23*%
%TO.N,VDD_H*%
X240640000Y-116459000D03*
%TO.P,U2,11*%
%TO.N,Net-(U2-Pad11)*%
X233020000Y-116459000D03*
%TO.P,U2,21*%
%TO.N,GND*%
X239370000Y-116459000D03*
%TO.P,U2,13*%
%TO.N,Net-(U2-Pad13)*%
X234290000Y-116459000D03*
%TO.P,U2,15*%
%TO.N,PROG*%
X235560000Y-116459000D03*
%TO.P,U2,17*%
%TO.N,EXT_VCC_CONTROL*%
X236830000Y-116459000D03*
%TO.P,U2,25*%
%TO.N,DCCH*%
X241910000Y-116459000D03*
%TO.P,U2,19*%
%TO.N,VDD_H*%
X238100000Y-116459000D03*
D11*
%TO.P,U2,30*%
%TO.N,Net-(U2-Pad30)*%
X241531000Y-110938000D03*
%TO.P,U2,32*%
%TO.N,Net-(U2-Pad32)*%
X241531000Y-109668000D03*
%TO.P,U2,34*%
%TO.N,Net-(U2-Pad34)*%
X241531000Y-108398000D03*
%TO.P,U2,36*%
%TO.N,Net-(U2-Pad36)*%
X241531000Y-107128000D03*
%TO.P,U2,38*%
%TO.N,Net-(U2-Pad38)*%
X241531000Y-105858000D03*
%TO.P,U2,40*%
%TO.N,Net-(U2-Pad40)*%
X241531000Y-104588000D03*
%TO.P,U2,42*%
%TO.N,Net-(U2-Pad42)*%
X241531000Y-103318000D03*
D14*
%TO.P,U2,14*%
%TO.N,Net-(U2-Pad14)*%
X234927000Y-114748000D03*
%TO.P,U2,12*%
%TO.N,Net-(U2-Pad12)*%
X233657000Y-114748000D03*
%TO.P,U2,20*%
%TO.N,Net-(U2-Pad20)*%
X238737000Y-114748000D03*
%TO.P,U2,16*%
%TO.N,Net-(U2-Pad16)*%
X236197000Y-114748000D03*
%TO.P,U2,22*%
%TO.N,Net-(U2-Pad22)*%
X240007000Y-114748000D03*
%TO.P,U2,24*%
%TO.N,GND*%
X241277000Y-114748000D03*
%TO.P,U2,18*%
%TO.N,BATTERY_MEASURE*%
X237467000Y-114748000D03*
%TD*%
D15*
%TO.P,J1,B1*%
%TO.N,GND*%
X234240000Y-96755000D03*
%TO.P,J1,A9*%
%TO.N,VBUS*%
X235040000Y-96755000D03*
%TO.P,J1,B9*%
X239940000Y-96755000D03*
%TO.P,J1,B12*%
%TO.N,GND*%
X240740000Y-96755000D03*
%TO.P,J1,A1*%
X240740000Y-96755000D03*
%TO.P,J1,A4*%
%TO.N,VBUS*%
X239940000Y-96755000D03*
%TO.P,J1,B4*%
X235040000Y-96755000D03*
%TO.P,J1,A12*%
%TO.N,GND*%
X234240000Y-96755000D03*
D16*
%TO.P,J1,B8*%
%TO.N,Net-(J1-PadB8)*%
X239240000Y-96755000D03*
%TO.P,J1,A5*%
%TO.N,Net-(J1-PadA5)*%
X238740000Y-96755000D03*
%TO.P,J1,B7*%
%TO.N,DATA-*%
X238240000Y-96755000D03*
%TO.P,J1,A7*%
X237240000Y-96755000D03*
%TO.P,J1,B6*%
%TO.N,DATA+*%
X236740000Y-96755000D03*
%TO.P,J1,A8*%
%TO.N,Net-(J1-PadA8)*%
X236240000Y-96755000D03*
%TO.P,J1,B5*%
%TO.N,Net-(J1-PadB5)*%
X235740000Y-96755000D03*
%TO.P,J1,A6*%
%TO.N,DATA+*%
X237740000Y-96755000D03*
D17*
%TO.P,J1,S1*%
%TO.N,GND*%
X233170000Y-95840000D03*
X241810000Y-95840000D03*
D18*
X241810000Y-91660000D03*
X233170000Y-91660000D03*
%TD*%
M02*
