%TF.GenerationSoftware,KiCad,Pcbnew,(5.1.8-0-10_14)*%
%TF.CreationDate,2020-11-21T07:35:44-07:00*%
%TF.ProjectId,Ellow,456c6c6f-772e-46b6-9963-61645f706362,rev?*%
%TF.SameCoordinates,Original*%
%TF.FileFunction,Soldermask,Top*%
%TF.FilePolarity,Negative*%
%FSLAX46Y46*%
G04 Gerber Fmt 4.6, Leading zero omitted, Abs format (unit mm)*
G04 Created by KiCad (PCBNEW (5.1.8-0-10_14)) date 2020-11-21 07:35:44*
%MOMM*%
%LPD*%
G01*
G04 APERTURE LIST*
%ADD10R,3.000000X0.330000*%
%ADD11R,1.000000X0.650000*%
%ADD12R,0.650000X1.000000*%
%ADD13R,0.600000X1.450000*%
%ADD14R,0.300000X1.450000*%
%ADD15O,1.000000X2.100000*%
%ADD16C,0.650000*%
%ADD17O,1.000000X1.600000*%
G04 APERTURE END LIST*
D10*
%TO.C,J4*%
X226531102Y-93874757D03*
X226531102Y-94374757D03*
X226531102Y-94874757D03*
X226531102Y-95374757D03*
X226531102Y-95874757D03*
X226531102Y-96374757D03*
X226531102Y-96874757D03*
X226531102Y-97374757D03*
X226531102Y-97874757D03*
X226531102Y-98374757D03*
X226531102Y-98874757D03*
X226531102Y-99374757D03*
X226531102Y-99874757D03*
X226531102Y-100374757D03*
X226531102Y-100874757D03*
X226531102Y-101374757D03*
X226531102Y-101874757D03*
X226531102Y-102374757D03*
X226531102Y-102874757D03*
X226531102Y-103374757D03*
X226531102Y-103874757D03*
X226531102Y-104374757D03*
X226531102Y-104874757D03*
X226531102Y-105374757D03*
X226531102Y-105874757D03*
X226531102Y-106374757D03*
X226531102Y-106874757D03*
X226531102Y-107374757D03*
X226531102Y-107874757D03*
X226531102Y-110374757D03*
X226531102Y-110874757D03*
X226531102Y-111374757D03*
X226531102Y-111874757D03*
%TD*%
D11*
%TO.C,U2*%
X241531000Y-112208000D03*
X231371000Y-114240000D03*
X231371000Y-112970000D03*
X231371000Y-111700000D03*
X231371000Y-110430000D03*
X231371000Y-109160000D03*
X231371000Y-107890000D03*
X231371000Y-106620000D03*
X231371000Y-105350000D03*
X231371000Y-104080000D03*
X231371000Y-102810000D03*
X243609000Y-110430000D03*
X243609000Y-102810000D03*
X243609000Y-109160000D03*
X243609000Y-104080000D03*
X243609000Y-105350000D03*
X243609000Y-106620000D03*
X243609000Y-111700000D03*
X243609000Y-107890000D03*
X243609000Y-112970000D03*
X243609000Y-114240000D03*
D12*
X240640000Y-116459000D03*
X233020000Y-116459000D03*
X239370000Y-116459000D03*
X234290000Y-116459000D03*
X235560000Y-116459000D03*
X236830000Y-116459000D03*
X241910000Y-116459000D03*
X238100000Y-116459000D03*
D11*
X241531000Y-110938000D03*
X241531000Y-109668000D03*
X241531000Y-108398000D03*
X241531000Y-107128000D03*
X241531000Y-105858000D03*
X241531000Y-104588000D03*
X241531000Y-103318000D03*
D12*
X234927000Y-114748000D03*
X233657000Y-114748000D03*
X238737000Y-114748000D03*
X236197000Y-114748000D03*
X240007000Y-114748000D03*
X241277000Y-114748000D03*
X237467000Y-114748000D03*
%TD*%
D13*
%TO.C,J1*%
X234240000Y-96755000D03*
X235040000Y-96755000D03*
X239940000Y-96755000D03*
X240740000Y-96755000D03*
X240740000Y-96755000D03*
X239940000Y-96755000D03*
X235040000Y-96755000D03*
X234240000Y-96755000D03*
D14*
X239240000Y-96755000D03*
X238740000Y-96755000D03*
X238240000Y-96755000D03*
X237240000Y-96755000D03*
X236740000Y-96755000D03*
X236240000Y-96755000D03*
X235740000Y-96755000D03*
X237740000Y-96755000D03*
D15*
X233170000Y-95840000D03*
X241810000Y-95840000D03*
D16*
X240380000Y-95310000D03*
D17*
X241810000Y-91660000D03*
D16*
X234600000Y-95310000D03*
D17*
X233170000Y-91660000D03*
%TD*%
M02*
