%TF.GenerationSoftware,KiCad,Pcbnew,(5.1.8-0-10_14)*%
%TF.CreationDate,2020-11-21T11:10:47-07:00*%
%TF.ProjectId,Ellow,456c6c6f-772e-46b6-9963-61645f706362,rev?*%
%TF.SameCoordinates,Original*%
%TF.FileFunction,Copper,L2,Bot*%
%TF.FilePolarity,Positive*%
%FSLAX46Y46*%
G04 Gerber Fmt 4.6, Leading zero omitted, Abs format (unit mm)*
G04 Created by KiCad (PCBNEW (5.1.8-0-10_14)) date 2020-11-21 11:10:47*
%MOMM*%
%LPD*%
G01*
G04 APERTURE LIST*
%TA.AperFunction,SMDPad,CuDef*%
%ADD10R,2.200000X0.330000*%
%TD*%
%TA.AperFunction,ComponentPad*%
%ADD11O,1.700000X1.700000*%
%TD*%
%TA.AperFunction,ComponentPad*%
%ADD12R,1.700000X1.700000*%
%TD*%
%TA.AperFunction,ComponentPad*%
%ADD13R,1.000000X0.650000*%
%TD*%
%TA.AperFunction,ComponentPad*%
%ADD14R,0.650000X1.000000*%
%TD*%
%TA.AperFunction,ComponentPad*%
%ADD15O,1.000000X2.100000*%
%TD*%
%TA.AperFunction,ComponentPad*%
%ADD16O,1.000000X1.600000*%
%TD*%
G04 APERTURE END LIST*
D10*
%TO.P,J2,1*%
%TO.N,N/C*%
X226531102Y-93643757D03*
%TO.P,J2,3*%
X226531102Y-94143757D03*
%TO.P,J2,5*%
X226531102Y-94643757D03*
%TO.P,J2,7*%
X226531102Y-95143757D03*
%TO.P,J2,59*%
X226531102Y-108143757D03*
%TO.P,J2,61*%
X226531102Y-108643757D03*
%TO.P,J2,63*%
X226531102Y-109143757D03*
%TO.P,J2,65*%
X226531102Y-109643757D03*
%TO.P,J2,17*%
X226531102Y-97643757D03*
%TO.P,J2,19*%
X226531102Y-98143757D03*
%TO.P,J2,21*%
X226531102Y-98643757D03*
%TO.P,J2,23*%
X226531102Y-99143757D03*
%TO.P,J2,25*%
X226531102Y-99643757D03*
%TO.P,J2,27*%
X226531102Y-100143757D03*
%TO.P,J2,29*%
X226531102Y-100643757D03*
%TO.P,J2,31*%
X226531102Y-101143757D03*
%TO.P,J2,33*%
X226531102Y-101643757D03*
%TO.P,J2,35*%
X226531102Y-102143757D03*
%TO.P,J2,37*%
X226531102Y-102643757D03*
%TO.P,J2,39*%
X226531102Y-103143757D03*
%TO.P,J2,41*%
X226531102Y-103643757D03*
%TO.P,J2,43*%
X226531102Y-104143757D03*
%TO.P,J2,45*%
X226531102Y-104643757D03*
%TO.P,J2,47*%
X226531102Y-105143757D03*
%TO.P,J2,49*%
X226531102Y-105643757D03*
%TO.P,J2,51*%
X226531102Y-106143757D03*
%TO.P,J2,53*%
X226531102Y-106643757D03*
%TO.P,J2,55*%
X226531102Y-107143757D03*
%TO.P,J2,57*%
X226531102Y-107643757D03*
%TO.P,J2,67*%
X226531102Y-110143757D03*
%TO.P,J2,69*%
X226531102Y-110643757D03*
%TO.P,J2,71*%
X226531102Y-111143757D03*
%TO.P,J2,73*%
X226531102Y-111643757D03*
%TO.P,J2,75*%
X226531102Y-112143757D03*
%TD*%
D11*
%TO.P,Bat+ Bat-,2*%
%TO.N,GND*%
X233680000Y-126003000D03*
D12*
%TO.P,Bat+ Bat-,1*%
%TO.N,VBAT*%
X231140000Y-126003000D03*
%TD*%
D13*
%TO.P,U2,28*%
%TO.N,Net-(U2-Pad28)*%
X241531000Y-112208000D03*
%TO.P,U2,30*%
%TO.N,Net-(U2-Pad30)*%
X241531000Y-110938000D03*
%TO.P,U2,32*%
%TO.N,Net-(U2-Pad32)*%
X241531000Y-109668000D03*
%TO.P,U2,34*%
%TO.N,Net-(U2-Pad34)*%
X241531000Y-108398000D03*
%TO.P,U2,36*%
%TO.N,Net-(U2-Pad36)*%
X241531000Y-107128000D03*
%TO.P,U2,38*%
%TO.N,Net-(U2-Pad38)*%
X241531000Y-105858000D03*
%TO.P,U2,40*%
%TO.N,Net-(U2-Pad40)*%
X241531000Y-104588000D03*
%TO.P,U2,42*%
%TO.N,Net-(U2-Pad42)*%
X241531000Y-103318000D03*
D14*
%TO.P,U2,14*%
%TO.N,Net-(U2-Pad14)*%
X234927000Y-114748000D03*
%TO.P,U2,12*%
%TO.N,Net-(U2-Pad12)*%
X233657000Y-114748000D03*
%TO.P,U2,20*%
%TO.N,Net-(U2-Pad20)*%
X238737000Y-114748000D03*
%TO.P,U2,16*%
%TO.N,Net-(U2-Pad16)*%
X236197000Y-114748000D03*
%TO.P,U2,22*%
%TO.N,Net-(U2-Pad22)*%
X240007000Y-114748000D03*
%TO.P,U2,24*%
%TO.N,GND*%
X241277000Y-114748000D03*
%TO.P,U2,18*%
%TO.N,BATTERY_MEASURE*%
X237467000Y-114748000D03*
%TD*%
D15*
%TO.P,J1,S1*%
%TO.N,GND*%
X232979000Y-95986000D03*
X241619000Y-95986000D03*
D16*
X241619000Y-91806000D03*
X232979000Y-91806000D03*
%TD*%
M02*
