M48
; DRILL file {KiCad (5.1.8-0-10_14)} date Sunday, November 22, 2020 at 12:38:23 PM
; FORMAT={-:-/ absolute / inch / decimal}
; #@! TF.CreationDate,2020-11-22T12:38:23-07:00
; #@! TF.GenerationSoftware,Kicad,Pcbnew,(5.1.8-0-10_14)
; #@! TF.FileFunction,Plated,1,2,PTH
FMAT,2
INCH
T1C0.0118
T2C0.0236
T3C0.0256
%
G90
G05
T1
X9.1384Y-4.5031
X9.1384Y-4.5531
X9.1384Y-4.6031
X9.1384Y-4.6531
X9.1384Y-4.7031
X9.1384Y-4.7531
X9.1384Y-4.8031
X9.1384Y-4.8531
X9.1484Y-4.4031
X9.1984Y-4.4031
X9.2484Y-4.4031
X9.2984Y-4.4031
X9.3484Y-4.4031
X9.3984Y-4.4031
X9.4484Y-4.4031
T3
X8.9169Y-4.89
X8.9669Y-4.89
T2
G00X9.1174Y-3.6212
M15
G01X9.1174Y-3.5976
M16
G05
G00X9.1174Y-3.7956
M15
G01X9.1174Y-3.7523
M16
G05
G00X9.4576Y-3.6212
M15
G01X9.4576Y-3.5976
M16
G05
G00X9.4576Y-3.7956
M15
G01X9.4576Y-3.7523
M16
G05
T0
M30
