%TF.GenerationSoftware,KiCad,Pcbnew,(5.1.8-0-10_14)*%
%TF.CreationDate,2020-11-21T11:10:47-07:00*%
%TF.ProjectId,Ellow,456c6c6f-772e-46b6-9963-61645f706362,rev?*%
%TF.SameCoordinates,Original*%
%TF.FileFunction,Copper,L1,Top*%
%TF.FilePolarity,Positive*%
%FSLAX46Y46*%
G04 Gerber Fmt 4.6, Leading zero omitted, Abs format (unit mm)*
G04 Created by KiCad (PCBNEW (5.1.8-0-10_14)) date 2020-11-21 11:10:47*
%MOMM*%
%LPD*%
G01*
G04 APERTURE LIST*
%TA.AperFunction,SMDPad,CuDef*%
%ADD10R,1.050000X1.100000*%
%TD*%
%TA.AperFunction,SMDPad,CuDef*%
%ADD11R,3.000000X0.330000*%
%TD*%
%TA.AperFunction,SMDPad,CuDef*%
%ADD12R,1.560000X0.650000*%
%TD*%
%TA.AperFunction,SMDPad,CuDef*%
%ADD13R,1.000000X1.000000*%
%TD*%
%TA.AperFunction,SMDPad,CuDef*%
%ADD14R,0.800000X1.900000*%
%TD*%
%TA.AperFunction,SMDPad,CuDef*%
%ADD15R,1.900000X0.800000*%
%TD*%
%TA.AperFunction,ComponentPad*%
%ADD16O,1.700000X1.700000*%
%TD*%
%TA.AperFunction,ComponentPad*%
%ADD17R,1.700000X1.700000*%
%TD*%
%TA.AperFunction,ComponentPad*%
%ADD18R,1.000000X0.650000*%
%TD*%
%TA.AperFunction,SMDPad,CuDef*%
%ADD19R,1.000000X0.650000*%
%TD*%
%TA.AperFunction,SMDPad,CuDef*%
%ADD20R,0.650000X1.000000*%
%TD*%
%TA.AperFunction,ComponentPad*%
%ADD21R,0.650000X1.000000*%
%TD*%
%TA.AperFunction,SMDPad,CuDef*%
%ADD22R,0.600000X1.450000*%
%TD*%
%TA.AperFunction,SMDPad,CuDef*%
%ADD23R,0.300000X1.450000*%
%TD*%
%TA.AperFunction,ComponentPad*%
%ADD24O,1.000000X2.100000*%
%TD*%
%TA.AperFunction,ComponentPad*%
%ADD25O,1.000000X1.600000*%
%TD*%
G04 APERTURE END LIST*
%TO.P,R9,2*%
%TO.N,GND*%
%TA.AperFunction,SMDPad,CuDef*%
G36*
G01*
X230648500Y-95543500D02*
X231123500Y-95543500D01*
G75*
G02*
X231361000Y-95781000I0J-237500D01*
G01*
X231361000Y-96281000D01*
G75*
G02*
X231123500Y-96518500I-237500J0D01*
G01*
X230648500Y-96518500D01*
G75*
G02*
X230411000Y-96281000I0J237500D01*
G01*
X230411000Y-95781000D01*
G75*
G02*
X230648500Y-95543500I237500J0D01*
G01*
G37*
%TD.AperFunction*%
%TO.P,R9,1*%
%TO.N,Net-(D3-Pad1)*%
%TA.AperFunction,SMDPad,CuDef*%
G36*
G01*
X230648500Y-93718500D02*
X231123500Y-93718500D01*
G75*
G02*
X231361000Y-93956000I0J-237500D01*
G01*
X231361000Y-94456000D01*
G75*
G02*
X231123500Y-94693500I-237500J0D01*
G01*
X230648500Y-94693500D01*
G75*
G02*
X230411000Y-94456000I0J237500D01*
G01*
X230411000Y-93956000D01*
G75*
G02*
X230648500Y-93718500I237500J0D01*
G01*
G37*
%TD.AperFunction*%
%TD*%
%TO.P,D3,2*%
%TO.N,Net-(D3-Pad2)*%
%TA.AperFunction,SMDPad,CuDef*%
G36*
G01*
X231142250Y-91363000D02*
X230629750Y-91363000D01*
G75*
G02*
X230411000Y-91144250I0J218750D01*
G01*
X230411000Y-90706750D01*
G75*
G02*
X230629750Y-90488000I218750J0D01*
G01*
X231142250Y-90488000D01*
G75*
G02*
X231361000Y-90706750I0J-218750D01*
G01*
X231361000Y-91144250D01*
G75*
G02*
X231142250Y-91363000I-218750J0D01*
G01*
G37*
%TD.AperFunction*%
%TO.P,D3,1*%
%TO.N,Net-(D3-Pad1)*%
%TA.AperFunction,SMDPad,CuDef*%
G36*
G01*
X231142250Y-92938000D02*
X230629750Y-92938000D01*
G75*
G02*
X230411000Y-92719250I0J218750D01*
G01*
X230411000Y-92281750D01*
G75*
G02*
X230629750Y-92063000I218750J0D01*
G01*
X231142250Y-92063000D01*
G75*
G02*
X231361000Y-92281750I0J-218750D01*
G01*
X231361000Y-92719250D01*
G75*
G02*
X231142250Y-92938000I-218750J0D01*
G01*
G37*
%TD.AperFunction*%
%TD*%
D10*
%TO.P,Y1,2*%
%TO.N,Net-(U2-Pad11)*%
X232755000Y-118637000D03*
%TO.P,Y1,1*%
%TO.N,Net-(U2-Pad13)*%
X234605000Y-118637000D03*
%TD*%
D11*
%TO.P,J2,2*%
%TO.N,N/C*%
X226531102Y-93893757D03*
%TO.P,J2,4*%
X226531102Y-94393757D03*
%TO.P,J2,6*%
X226531102Y-94893757D03*
%TO.P,J2,66*%
X226531102Y-109889000D03*
%TO.P,J2,60*%
X226531102Y-108393757D03*
%TO.P,J2,62*%
X226531102Y-108893757D03*
%TO.P,J2,64*%
X226531102Y-109393757D03*
%TO.P,J2,16*%
X226531102Y-97393757D03*
%TO.P,J2,18*%
X226531102Y-97893757D03*
%TO.P,J2,20*%
X226531102Y-98393757D03*
%TO.P,J2,22*%
X226531102Y-98893757D03*
%TO.P,J2,24*%
X226531102Y-99393757D03*
%TO.P,J2,26*%
X226531102Y-99893757D03*
%TO.P,J2,28*%
X226531102Y-100393757D03*
%TO.P,J2,30*%
X226531102Y-100893757D03*
%TO.P,J2,32*%
X226531102Y-101393757D03*
%TO.P,J2,34*%
X226531102Y-101893757D03*
%TO.P,J2,36*%
X226531102Y-102393757D03*
%TO.P,J2,38*%
X226531102Y-102893757D03*
%TO.P,J2,40*%
X226531102Y-103393757D03*
%TO.P,J2,42*%
X226531102Y-103893757D03*
%TO.P,J2,44*%
X226531102Y-104393757D03*
%TO.P,J2,46*%
X226531102Y-104893757D03*
%TO.P,J2,48*%
X226531102Y-105393757D03*
%TO.P,J2,50*%
X226531102Y-105893757D03*
%TO.P,J2,52*%
X226531102Y-106393757D03*
%TO.P,J2,54*%
X226531102Y-106893757D03*
%TO.P,J2,56*%
X226531102Y-107393757D03*
%TO.P,J2,58*%
X226531102Y-107893757D03*
%TO.P,J2,68*%
X226531102Y-110393757D03*
%TO.P,J2,70*%
X226531102Y-110893757D03*
%TO.P,J2,72*%
X226531102Y-111393757D03*
%TO.P,J2,74*%
X226531102Y-111893757D03*
%TD*%
D12*
%TO.P,U3,5*%
%TO.N,Net-(R8-Pad1)*%
X245380000Y-122955000D03*
%TO.P,U3,4*%
%TO.N,Net-(D2-Pad2)*%
X245380000Y-124855000D03*
%TO.P,U3,3*%
%TO.N,VBAT*%
X242680000Y-124855000D03*
%TO.P,U3,2*%
%TO.N,GND*%
X242680000Y-123905000D03*
%TO.P,U3,1*%
%TO.N,Net-(R6-Pad2)*%
X242680000Y-122955000D03*
%TD*%
D13*
%TO.P,D1,2*%
%TO.N,VBUS*%
X242570000Y-118637000D03*
%TO.P,D1,1*%
%TO.N,Net-(C1-Pad1)*%
X242570000Y-121137000D03*
%TD*%
%TO.P,D2,2*%
%TO.N,Net-(D2-Pad2)*%
%TA.AperFunction,SMDPad,CuDef*%
G36*
G01*
X243905250Y-91236000D02*
X243392750Y-91236000D01*
G75*
G02*
X243174000Y-91017250I0J218750D01*
G01*
X243174000Y-90579750D01*
G75*
G02*
X243392750Y-90361000I218750J0D01*
G01*
X243905250Y-90361000D01*
G75*
G02*
X244124000Y-90579750I0J-218750D01*
G01*
X244124000Y-91017250D01*
G75*
G02*
X243905250Y-91236000I-218750J0D01*
G01*
G37*
%TD.AperFunction*%
%TO.P,D2,1*%
%TO.N,Net-(D2-Pad1)*%
%TA.AperFunction,SMDPad,CuDef*%
G36*
G01*
X243905250Y-92811000D02*
X243392750Y-92811000D01*
G75*
G02*
X243174000Y-92592250I0J218750D01*
G01*
X243174000Y-92154750D01*
G75*
G02*
X243392750Y-91936000I218750J0D01*
G01*
X243905250Y-91936000D01*
G75*
G02*
X244124000Y-92154750I0J-218750D01*
G01*
X244124000Y-92592250D01*
G75*
G02*
X243905250Y-92811000I-218750J0D01*
G01*
G37*
%TD.AperFunction*%
%TD*%
%TO.P,C2,2*%
%TO.N,GND*%
%TA.AperFunction,SMDPad,CuDef*%
G36*
G01*
X237927000Y-117891500D02*
X237927000Y-118366500D01*
G75*
G02*
X237689500Y-118604000I-237500J0D01*
G01*
X237089500Y-118604000D01*
G75*
G02*
X236852000Y-118366500I0J237500D01*
G01*
X236852000Y-117891500D01*
G75*
G02*
X237089500Y-117654000I237500J0D01*
G01*
X237689500Y-117654000D01*
G75*
G02*
X237927000Y-117891500I0J-237500D01*
G01*
G37*
%TD.AperFunction*%
%TO.P,C2,1*%
%TO.N,VBAT*%
%TA.AperFunction,SMDPad,CuDef*%
G36*
G01*
X239652000Y-117891500D02*
X239652000Y-118366500D01*
G75*
G02*
X239414500Y-118604000I-237500J0D01*
G01*
X238814500Y-118604000D01*
G75*
G02*
X238577000Y-118366500I0J237500D01*
G01*
X238577000Y-117891500D01*
G75*
G02*
X238814500Y-117654000I237500J0D01*
G01*
X239414500Y-117654000D01*
G75*
G02*
X239652000Y-117891500I0J-237500D01*
G01*
G37*
%TD.AperFunction*%
%TD*%
%TO.P,C1,2*%
%TO.N,GND*%
%TA.AperFunction,SMDPad,CuDef*%
G36*
G01*
X237927000Y-122971500D02*
X237927000Y-123446500D01*
G75*
G02*
X237689500Y-123684000I-237500J0D01*
G01*
X237089500Y-123684000D01*
G75*
G02*
X236852000Y-123446500I0J237500D01*
G01*
X236852000Y-122971500D01*
G75*
G02*
X237089500Y-122734000I237500J0D01*
G01*
X237689500Y-122734000D01*
G75*
G02*
X237927000Y-122971500I0J-237500D01*
G01*
G37*
%TD.AperFunction*%
%TO.P,C1,1*%
%TO.N,Net-(C1-Pad1)*%
%TA.AperFunction,SMDPad,CuDef*%
G36*
G01*
X239652000Y-122971500D02*
X239652000Y-123446500D01*
G75*
G02*
X239414500Y-123684000I-237500J0D01*
G01*
X238814500Y-123684000D01*
G75*
G02*
X238577000Y-123446500I0J237500D01*
G01*
X238577000Y-122971500D01*
G75*
G02*
X238814500Y-122734000I237500J0D01*
G01*
X239414500Y-122734000D01*
G75*
G02*
X239652000Y-122971500I0J-237500D01*
G01*
G37*
%TD.AperFunction*%
%TD*%
%TO.P,R7,2*%
%TO.N,GND*%
%TA.AperFunction,SMDPad,CuDef*%
G36*
G01*
X238677000Y-125224500D02*
X238677000Y-124749500D01*
G75*
G02*
X238914500Y-124512000I237500J0D01*
G01*
X239414500Y-124512000D01*
G75*
G02*
X239652000Y-124749500I0J-237500D01*
G01*
X239652000Y-125224500D01*
G75*
G02*
X239414500Y-125462000I-237500J0D01*
G01*
X238914500Y-125462000D01*
G75*
G02*
X238677000Y-125224500I0J237500D01*
G01*
G37*
%TD.AperFunction*%
%TO.P,R7,1*%
%TO.N,EXT_VCC_CONTROL*%
%TA.AperFunction,SMDPad,CuDef*%
G36*
G01*
X236852000Y-125224500D02*
X236852000Y-124749500D01*
G75*
G02*
X237089500Y-124512000I237500J0D01*
G01*
X237589500Y-124512000D01*
G75*
G02*
X237827000Y-124749500I0J-237500D01*
G01*
X237827000Y-125224500D01*
G75*
G02*
X237589500Y-125462000I-237500J0D01*
G01*
X237089500Y-125462000D01*
G75*
G02*
X236852000Y-125224500I0J237500D01*
G01*
G37*
%TD.AperFunction*%
%TD*%
%TO.P,R6,2*%
%TO.N,Net-(R6-Pad2)*%
%TA.AperFunction,SMDPad,CuDef*%
G36*
G01*
X243411500Y-95543500D02*
X243886500Y-95543500D01*
G75*
G02*
X244124000Y-95781000I0J-237500D01*
G01*
X244124000Y-96281000D01*
G75*
G02*
X243886500Y-96518500I-237500J0D01*
G01*
X243411500Y-96518500D01*
G75*
G02*
X243174000Y-96281000I0J237500D01*
G01*
X243174000Y-95781000D01*
G75*
G02*
X243411500Y-95543500I237500J0D01*
G01*
G37*
%TD.AperFunction*%
%TO.P,R6,1*%
%TO.N,Net-(D2-Pad1)*%
%TA.AperFunction,SMDPad,CuDef*%
G36*
G01*
X243411500Y-93718500D02*
X243886500Y-93718500D01*
G75*
G02*
X244124000Y-93956000I0J-237500D01*
G01*
X244124000Y-94456000D01*
G75*
G02*
X243886500Y-94693500I-237500J0D01*
G01*
X243411500Y-94693500D01*
G75*
G02*
X243174000Y-94456000I0J237500D01*
G01*
X243174000Y-93956000D01*
G75*
G02*
X243411500Y-93718500I237500J0D01*
G01*
G37*
%TD.AperFunction*%
%TD*%
%TO.P,R5,2*%
%TO.N,GND*%
%TA.AperFunction,SMDPad,CuDef*%
G36*
G01*
X238677000Y-121668500D02*
X238677000Y-121193500D01*
G75*
G02*
X238914500Y-120956000I237500J0D01*
G01*
X239414500Y-120956000D01*
G75*
G02*
X239652000Y-121193500I0J-237500D01*
G01*
X239652000Y-121668500D01*
G75*
G02*
X239414500Y-121906000I-237500J0D01*
G01*
X238914500Y-121906000D01*
G75*
G02*
X238677000Y-121668500I0J237500D01*
G01*
G37*
%TD.AperFunction*%
%TO.P,R5,1*%
%TO.N,BATTERY_MEASURE*%
%TA.AperFunction,SMDPad,CuDef*%
G36*
G01*
X236852000Y-121668500D02*
X236852000Y-121193500D01*
G75*
G02*
X237089500Y-120956000I237500J0D01*
G01*
X237589500Y-120956000D01*
G75*
G02*
X237827000Y-121193500I0J-237500D01*
G01*
X237827000Y-121668500D01*
G75*
G02*
X237589500Y-121906000I-237500J0D01*
G01*
X237089500Y-121906000D01*
G75*
G02*
X236852000Y-121668500I0J237500D01*
G01*
G37*
%TD.AperFunction*%
%TD*%
%TO.P,R4,2*%
%TO.N,BATTERY_MEASURE*%
%TA.AperFunction,SMDPad,CuDef*%
G36*
G01*
X237827000Y-119542500D02*
X237827000Y-120017500D01*
G75*
G02*
X237589500Y-120255000I-237500J0D01*
G01*
X237089500Y-120255000D01*
G75*
G02*
X236852000Y-120017500I0J237500D01*
G01*
X236852000Y-119542500D01*
G75*
G02*
X237089500Y-119305000I237500J0D01*
G01*
X237589500Y-119305000D01*
G75*
G02*
X237827000Y-119542500I0J-237500D01*
G01*
G37*
%TD.AperFunction*%
%TO.P,R4,1*%
%TO.N,VBAT*%
%TA.AperFunction,SMDPad,CuDef*%
G36*
G01*
X239652000Y-119542500D02*
X239652000Y-120017500D01*
G75*
G02*
X239414500Y-120255000I-237500J0D01*
G01*
X238914500Y-120255000D01*
G75*
G02*
X238677000Y-120017500I0J237500D01*
G01*
X238677000Y-119542500D01*
G75*
G02*
X238914500Y-119305000I237500J0D01*
G01*
X239414500Y-119305000D01*
G75*
G02*
X239652000Y-119542500I0J-237500D01*
G01*
G37*
%TD.AperFunction*%
%TD*%
%TO.P,R3,2*%
%TO.N,GND*%
%TA.AperFunction,SMDPad,CuDef*%
G36*
G01*
X247412500Y-108140000D02*
X247887500Y-108140000D01*
G75*
G02*
X248125000Y-108377500I0J-237500D01*
G01*
X248125000Y-108877500D01*
G75*
G02*
X247887500Y-109115000I-237500J0D01*
G01*
X247412500Y-109115000D01*
G75*
G02*
X247175000Y-108877500I0J237500D01*
G01*
X247175000Y-108377500D01*
G75*
G02*
X247412500Y-108140000I237500J0D01*
G01*
G37*
%TD.AperFunction*%
%TO.P,R3,1*%
%TO.N,Net-(J1-PadB5)*%
%TA.AperFunction,SMDPad,CuDef*%
G36*
G01*
X247412500Y-106315000D02*
X247887500Y-106315000D01*
G75*
G02*
X248125000Y-106552500I0J-237500D01*
G01*
X248125000Y-107052500D01*
G75*
G02*
X247887500Y-107290000I-237500J0D01*
G01*
X247412500Y-107290000D01*
G75*
G02*
X247175000Y-107052500I0J237500D01*
G01*
X247175000Y-106552500D01*
G75*
G02*
X247412500Y-106315000I237500J0D01*
G01*
G37*
%TD.AperFunction*%
%TD*%
%TO.P,R2,2*%
%TO.N,GND*%
%TA.AperFunction,SMDPad,CuDef*%
G36*
G01*
X246109500Y-107290000D02*
X245634500Y-107290000D01*
G75*
G02*
X245397000Y-107052500I0J237500D01*
G01*
X245397000Y-106552500D01*
G75*
G02*
X245634500Y-106315000I237500J0D01*
G01*
X246109500Y-106315000D01*
G75*
G02*
X246347000Y-106552500I0J-237500D01*
G01*
X246347000Y-107052500D01*
G75*
G02*
X246109500Y-107290000I-237500J0D01*
G01*
G37*
%TD.AperFunction*%
%TO.P,R2,1*%
%TO.N,Net-(J1-PadA5)*%
%TA.AperFunction,SMDPad,CuDef*%
G36*
G01*
X246109500Y-109115000D02*
X245634500Y-109115000D01*
G75*
G02*
X245397000Y-108877500I0J237500D01*
G01*
X245397000Y-108377500D01*
G75*
G02*
X245634500Y-108140000I237500J0D01*
G01*
X246109500Y-108140000D01*
G75*
G02*
X246347000Y-108377500I0J-237500D01*
G01*
X246347000Y-108877500D01*
G75*
G02*
X246109500Y-109115000I-237500J0D01*
G01*
G37*
%TD.AperFunction*%
%TD*%
%TO.P,R1,2*%
%TO.N,GND*%
%TA.AperFunction,SMDPad,CuDef*%
G36*
G01*
X246109500Y-103630500D02*
X245634500Y-103630500D01*
G75*
G02*
X245397000Y-103393000I0J237500D01*
G01*
X245397000Y-102893000D01*
G75*
G02*
X245634500Y-102655500I237500J0D01*
G01*
X246109500Y-102655500D01*
G75*
G02*
X246347000Y-102893000I0J-237500D01*
G01*
X246347000Y-103393000D01*
G75*
G02*
X246109500Y-103630500I-237500J0D01*
G01*
G37*
%TD.AperFunction*%
%TO.P,R1,1*%
%TO.N,VBUS*%
%TA.AperFunction,SMDPad,CuDef*%
G36*
G01*
X246109500Y-105455500D02*
X245634500Y-105455500D01*
G75*
G02*
X245397000Y-105218000I0J237500D01*
G01*
X245397000Y-104718000D01*
G75*
G02*
X245634500Y-104480500I237500J0D01*
G01*
X246109500Y-104480500D01*
G75*
G02*
X246347000Y-104718000I0J-237500D01*
G01*
X246347000Y-105218000D01*
G75*
G02*
X246109500Y-105455500I-237500J0D01*
G01*
G37*
%TD.AperFunction*%
%TD*%
D14*
%TO.P,Q2,3*%
%TO.N,EXT_VCC*%
X246888000Y-115335000D03*
%TO.P,Q2,2*%
%TO.N,VDD_H*%
X245938000Y-112335000D03*
%TO.P,Q2,1*%
%TO.N,EXT_VCC_CONTROL*%
X247838000Y-112335000D03*
%TD*%
D15*
%TO.P,Q1,3*%
%TO.N,VBAT*%
X233910000Y-122193000D03*
%TO.P,Q1,2*%
%TO.N,Net-(C1-Pad1)*%
X230910000Y-123143000D03*
%TO.P,Q1,1*%
%TO.N,VBUS*%
X230910000Y-121243000D03*
%TD*%
D16*
%TO.P,Bat+ Bat-,2*%
%TO.N,GND*%
X233680000Y-126003000D03*
D17*
%TO.P,Bat+ Bat-,1*%
%TO.N,VBAT*%
X231140000Y-126003000D03*
%TD*%
%TO.P,U1,5*%
%TO.N,VDD_H*%
%TA.AperFunction,SMDPad,CuDef*%
G36*
G01*
X246347000Y-119107000D02*
X246347000Y-118807000D01*
G75*
G02*
X246497000Y-118657000I150000J0D01*
G01*
X247522000Y-118657000D01*
G75*
G02*
X247672000Y-118807000I0J-150000D01*
G01*
X247672000Y-119107000D01*
G75*
G02*
X247522000Y-119257000I-150000J0D01*
G01*
X246497000Y-119257000D01*
G75*
G02*
X246347000Y-119107000I0J150000D01*
G01*
G37*
%TD.AperFunction*%
%TO.P,U1,4*%
%TO.N,Net-(U1-Pad4)*%
%TA.AperFunction,SMDPad,CuDef*%
G36*
G01*
X246347000Y-121007000D02*
X246347000Y-120707000D01*
G75*
G02*
X246497000Y-120557000I150000J0D01*
G01*
X247522000Y-120557000D01*
G75*
G02*
X247672000Y-120707000I0J-150000D01*
G01*
X247672000Y-121007000D01*
G75*
G02*
X247522000Y-121157000I-150000J0D01*
G01*
X246497000Y-121157000D01*
G75*
G02*
X246347000Y-121007000I0J150000D01*
G01*
G37*
%TD.AperFunction*%
%TO.P,U1,3*%
%TO.N,Net-(C1-Pad1)*%
%TA.AperFunction,SMDPad,CuDef*%
G36*
G01*
X244072000Y-121007000D02*
X244072000Y-120707000D01*
G75*
G02*
X244222000Y-120557000I150000J0D01*
G01*
X245247000Y-120557000D01*
G75*
G02*
X245397000Y-120707000I0J-150000D01*
G01*
X245397000Y-121007000D01*
G75*
G02*
X245247000Y-121157000I-150000J0D01*
G01*
X244222000Y-121157000D01*
G75*
G02*
X244072000Y-121007000I0J150000D01*
G01*
G37*
%TD.AperFunction*%
%TO.P,U1,2*%
%TO.N,GND*%
%TA.AperFunction,SMDPad,CuDef*%
G36*
G01*
X244072000Y-120057000D02*
X244072000Y-119757000D01*
G75*
G02*
X244222000Y-119607000I150000J0D01*
G01*
X245247000Y-119607000D01*
G75*
G02*
X245397000Y-119757000I0J-150000D01*
G01*
X245397000Y-120057000D01*
G75*
G02*
X245247000Y-120207000I-150000J0D01*
G01*
X244222000Y-120207000D01*
G75*
G02*
X244072000Y-120057000I0J150000D01*
G01*
G37*
%TD.AperFunction*%
%TO.P,U1,1*%
%TO.N,Net-(C1-Pad1)*%
%TA.AperFunction,SMDPad,CuDef*%
G36*
G01*
X244072000Y-119107000D02*
X244072000Y-118807000D01*
G75*
G02*
X244222000Y-118657000I150000J0D01*
G01*
X245247000Y-118657000D01*
G75*
G02*
X245397000Y-118807000I0J-150000D01*
G01*
X245397000Y-119107000D01*
G75*
G02*
X245247000Y-119257000I-150000J0D01*
G01*
X244222000Y-119257000D01*
G75*
G02*
X244072000Y-119107000I0J150000D01*
G01*
G37*
%TD.AperFunction*%
%TD*%
%TO.P,R8,2*%
%TO.N,GND*%
%TA.AperFunction,SMDPad,CuDef*%
G36*
G01*
X247158500Y-124396000D02*
X247633500Y-124396000D01*
G75*
G02*
X247871000Y-124633500I0J-237500D01*
G01*
X247871000Y-125133500D01*
G75*
G02*
X247633500Y-125371000I-237500J0D01*
G01*
X247158500Y-125371000D01*
G75*
G02*
X246921000Y-125133500I0J237500D01*
G01*
X246921000Y-124633500D01*
G75*
G02*
X247158500Y-124396000I237500J0D01*
G01*
G37*
%TD.AperFunction*%
%TO.P,R8,1*%
%TO.N,Net-(R8-Pad1)*%
%TA.AperFunction,SMDPad,CuDef*%
G36*
G01*
X247158500Y-122571000D02*
X247633500Y-122571000D01*
G75*
G02*
X247871000Y-122808500I0J-237500D01*
G01*
X247871000Y-123308500D01*
G75*
G02*
X247633500Y-123546000I-237500J0D01*
G01*
X247158500Y-123546000D01*
G75*
G02*
X246921000Y-123308500I0J237500D01*
G01*
X246921000Y-122808500D01*
G75*
G02*
X247158500Y-122571000I237500J0D01*
G01*
G37*
%TD.AperFunction*%
%TD*%
D18*
%TO.P,U2,28*%
%TO.N,Net-(U2-Pad28)*%
X241531000Y-112208000D03*
D19*
%TO.P,U2,10*%
%TO.N,Net-(U2-Pad10)*%
X231371000Y-114240000D03*
%TO.P,U2,9*%
%TO.N,Net-(U2-Pad9)*%
X231371000Y-112970000D03*
%TO.P,U2,8*%
%TO.N,Net-(U2-Pad8)*%
X231371000Y-111700000D03*
%TO.P,U2,7*%
%TO.N,Net-(U2-Pad7)*%
X231371000Y-110430000D03*
%TO.P,U2,6*%
%TO.N,Net-(U2-Pad6)*%
X231371000Y-109160000D03*
%TO.P,U2,5*%
%TO.N,GND*%
X231371000Y-107890000D03*
%TO.P,U2,4*%
%TO.N,Net-(U2-Pad4)*%
X231371000Y-106620000D03*
%TO.P,U2,3*%
%TO.N,Net-(U2-Pad3)*%
X231371000Y-105350000D03*
%TO.P,U2,2*%
%TO.N,Net-(D3-Pad2)*%
X231371000Y-104080000D03*
%TO.P,U2,1*%
%TO.N,Net-(U2-Pad1)*%
X231371000Y-102810000D03*
%TO.P,U2,31*%
%TO.N,DATA+*%
X243609000Y-110430000D03*
%TO.P,U2,43*%
%TO.N,Net-(U2-Pad43)*%
X243609000Y-102810000D03*
%TO.P,U2,33*%
%TO.N,Net-(U2-Pad33)*%
X243609000Y-109160000D03*
%TO.P,U2,41*%
%TO.N,Net-(U2-Pad41)*%
X243609000Y-104080000D03*
%TO.P,U2,39*%
%TO.N,SWC*%
X243609000Y-105350000D03*
%TO.P,U2,37*%
%TO.N,SWD*%
X243609000Y-106620000D03*
%TO.P,U2,29*%
%TO.N,DATA-*%
X243609000Y-111700000D03*
%TO.P,U2,35*%
%TO.N,Net-(U2-Pad35)*%
X243609000Y-107890000D03*
%TO.P,U2,27*%
%TO.N,VBUS*%
X243609000Y-112970000D03*
%TO.P,U2,26*%
%TO.N,RESET*%
X243609000Y-114240000D03*
D20*
%TO.P,U2,23*%
%TO.N,VDD_H*%
X240640000Y-116459000D03*
%TO.P,U2,11*%
%TO.N,Net-(U2-Pad11)*%
X233020000Y-116459000D03*
%TO.P,U2,21*%
%TO.N,GND*%
X239370000Y-116459000D03*
%TO.P,U2,13*%
%TO.N,Net-(U2-Pad13)*%
X234290000Y-116459000D03*
%TO.P,U2,15*%
%TO.N,PROG*%
X235560000Y-116459000D03*
%TO.P,U2,17*%
%TO.N,EXT_VCC_CONTROL*%
X236830000Y-116459000D03*
%TO.P,U2,25*%
%TO.N,DCCH*%
X241910000Y-116459000D03*
%TO.P,U2,19*%
%TO.N,VDD_H*%
X238100000Y-116459000D03*
D18*
%TO.P,U2,30*%
%TO.N,Net-(U2-Pad30)*%
X241531000Y-110938000D03*
%TO.P,U2,32*%
%TO.N,Net-(U2-Pad32)*%
X241531000Y-109668000D03*
%TO.P,U2,34*%
%TO.N,Net-(U2-Pad34)*%
X241531000Y-108398000D03*
%TO.P,U2,36*%
%TO.N,Net-(U2-Pad36)*%
X241531000Y-107128000D03*
%TO.P,U2,38*%
%TO.N,Net-(U2-Pad38)*%
X241531000Y-105858000D03*
%TO.P,U2,40*%
%TO.N,Net-(U2-Pad40)*%
X241531000Y-104588000D03*
%TO.P,U2,42*%
%TO.N,Net-(U2-Pad42)*%
X241531000Y-103318000D03*
D21*
%TO.P,U2,14*%
%TO.N,Net-(U2-Pad14)*%
X234927000Y-114748000D03*
%TO.P,U2,12*%
%TO.N,Net-(U2-Pad12)*%
X233657000Y-114748000D03*
%TO.P,U2,20*%
%TO.N,Net-(U2-Pad20)*%
X238737000Y-114748000D03*
%TO.P,U2,16*%
%TO.N,Net-(U2-Pad16)*%
X236197000Y-114748000D03*
%TO.P,U2,22*%
%TO.N,Net-(U2-Pad22)*%
X240007000Y-114748000D03*
%TO.P,U2,24*%
%TO.N,GND*%
X241277000Y-114748000D03*
%TO.P,U2,18*%
%TO.N,BATTERY_MEASURE*%
X237467000Y-114748000D03*
%TD*%
D22*
%TO.P,J1,B1*%
%TO.N,GND*%
X234049000Y-96901000D03*
%TO.P,J1,A9*%
%TO.N,VBUS*%
X234849000Y-96901000D03*
%TO.P,J1,B9*%
X239749000Y-96901000D03*
%TO.P,J1,B12*%
%TO.N,GND*%
X240549000Y-96901000D03*
%TO.P,J1,A1*%
X240549000Y-96901000D03*
%TO.P,J1,A4*%
%TO.N,VBUS*%
X239749000Y-96901000D03*
%TO.P,J1,B4*%
X234849000Y-96901000D03*
%TO.P,J1,A12*%
%TO.N,GND*%
X234049000Y-96901000D03*
D23*
%TO.P,J1,B8*%
%TO.N,Net-(J1-PadB8)*%
X239049000Y-96901000D03*
%TO.P,J1,A5*%
%TO.N,Net-(J1-PadA5)*%
X238549000Y-96901000D03*
%TO.P,J1,B7*%
%TO.N,DATA-*%
X238049000Y-96901000D03*
%TO.P,J1,A7*%
X237049000Y-96901000D03*
%TO.P,J1,B6*%
%TO.N,DATA+*%
X236549000Y-96901000D03*
%TO.P,J1,A8*%
%TO.N,Net-(J1-PadA8)*%
X236049000Y-96901000D03*
%TO.P,J1,B5*%
%TO.N,Net-(J1-PadB5)*%
X235549000Y-96901000D03*
%TO.P,J1,A6*%
%TO.N,DATA+*%
X237549000Y-96901000D03*
D24*
%TO.P,J1,S1*%
%TO.N,GND*%
X232979000Y-95986000D03*
X241619000Y-95986000D03*
D25*
X241619000Y-91806000D03*
X232979000Y-91806000D03*
%TD*%
M02*
